<mxfile host="app.diagrams.net" agent="Mozilla/5.0 (Windows NT 10.0; Win64; x64) AppleWebKit/537.36 (KHTML, like Gecko) Chrome/129.0.0.0 Safari/537.36 Edg/129.0.0.0" version="24.7.16">
  <diagram id="Ht1M8jgEwFfnCIfOTk4-" name="Page-1">
    <mxGraphModel dx="3363" dy="1352" grid="1" gridSize="10" guides="1" tooltips="1" connect="1" arrows="1" fold="1" page="1" pageScale="1" pageWidth="1169" pageHeight="827" math="0" shadow="0">
      <root>
        <mxCell id="0" />
        <mxCell id="1" parent="0" />
        <mxCell id="UEzPUAAOIrF-is8g5C7q-128" style="edgeStyle=orthogonalEdgeStyle;rounded=0;orthogonalLoop=1;jettySize=auto;html=1;startArrow=open;startFill=0;endArrow=open;endFill=0;strokeWidth=2;strokeColor=#808080;" parent="1" source="UEzPUAAOIrF-is8g5C7q-109" target="UEzPUAAOIrF-is8g5C7q-114" edge="1">
          <mxGeometry relative="1" as="geometry">
            <Array as="points">
              <mxPoint x="310.5" y="461.5" />
              <mxPoint x="310.5" y="376.5" />
            </Array>
          </mxGeometry>
        </mxCell>
        <mxCell id="xVwqEHrUv4qcuta3dnkX-10" value="GraphQL" style="edgeLabel;html=1;align=center;verticalAlign=middle;resizable=0;points=[];" vertex="1" connectable="0" parent="UEzPUAAOIrF-is8g5C7q-128">
          <mxGeometry x="-0.1821" y="1" relative="1" as="geometry">
            <mxPoint as="offset" />
          </mxGeometry>
        </mxCell>
        <mxCell id="UEzPUAAOIrF-is8g5C7q-127" style="edgeStyle=orthogonalEdgeStyle;rounded=0;orthogonalLoop=1;jettySize=auto;html=1;startArrow=open;startFill=0;endArrow=open;endFill=0;strokeWidth=2;strokeColor=#808080;" parent="1" source="UEzPUAAOIrF-is8g5C7q-110" target="UEzPUAAOIrF-is8g5C7q-114" edge="1">
          <mxGeometry relative="1" as="geometry">
            <Array as="points">
              <mxPoint x="311.5" y="281.5" />
              <mxPoint x="311.5" y="361.5" />
            </Array>
          </mxGeometry>
        </mxCell>
        <mxCell id="xVwqEHrUv4qcuta3dnkX-9" value="GraphQL" style="edgeLabel;html=1;align=center;verticalAlign=middle;resizable=0;points=[];" vertex="1" connectable="0" parent="UEzPUAAOIrF-is8g5C7q-127">
          <mxGeometry x="-0.0009" y="-6" relative="1" as="geometry">
            <mxPoint as="offset" />
          </mxGeometry>
        </mxCell>
        <mxCell id="xVwqEHrUv4qcuta3dnkX-17" style="edgeStyle=orthogonalEdgeStyle;rounded=0;orthogonalLoop=1;jettySize=auto;html=1;" edge="1" parent="1" source="UEzPUAAOIrF-is8g5C7q-109" target="xVwqEHrUv4qcuta3dnkX-13">
          <mxGeometry relative="1" as="geometry" />
        </mxCell>
        <mxCell id="xVwqEHrUv4qcuta3dnkX-19" value="HTTPS" style="edgeLabel;html=1;align=center;verticalAlign=middle;resizable=0;points=[];" vertex="1" connectable="0" parent="xVwqEHrUv4qcuta3dnkX-17">
          <mxGeometry x="-0.3815" y="3" relative="1" as="geometry">
            <mxPoint as="offset" />
          </mxGeometry>
        </mxCell>
        <mxCell id="UEzPUAAOIrF-is8g5C7q-109" value="Web Browser&lt;div&gt;&lt;br&gt;&lt;/div&gt;" style="outlineConnect=0;gradientColor=none;fontColor=#545B64;strokeColor=none;fillColor=#879196;dashed=0;verticalLabelPosition=bottom;verticalAlign=top;align=center;html=1;fontSize=12;fontStyle=0;aspect=fixed;shape=mxgraph.aws4.illustration_desktop;pointerEvents=1;labelBackgroundColor=#ffffff;" parent="1" vertex="1">
          <mxGeometry x="120" y="430" width="100" height="91" as="geometry" />
        </mxCell>
        <mxCell id="UEzPUAAOIrF-is8g5C7q-110" value="Mobile" style="outlineConnect=0;gradientColor=none;fontColor=#545B64;strokeColor=none;fillColor=#879196;dashed=0;verticalLabelPosition=bottom;verticalAlign=top;align=center;html=1;fontSize=12;fontStyle=0;aspect=fixed;shape=mxgraph.aws4.illustration_notification;pointerEvents=1;labelBackgroundColor=#ffffff;" parent="1" vertex="1">
          <mxGeometry x="160.5" y="221.5" width="100" height="81" as="geometry" />
        </mxCell>
        <mxCell id="xVwqEHrUv4qcuta3dnkX-28" value="" style="edgeStyle=orthogonalEdgeStyle;rounded=0;orthogonalLoop=1;jettySize=auto;html=1;" edge="1" parent="1" source="UEzPUAAOIrF-is8g5C7q-114" target="xVwqEHrUv4qcuta3dnkX-27">
          <mxGeometry relative="1" as="geometry">
            <Array as="points">
              <mxPoint x="409" y="100" />
            </Array>
          </mxGeometry>
        </mxCell>
        <mxCell id="UEzPUAAOIrF-is8g5C7q-114" value="API&lt;br&gt;Gateway" style="outlineConnect=0;fontColor=#232F3E;gradientColor=#945DF2;gradientDirection=north;fillColor=#5A30B5;strokeColor=#ffffff;dashed=0;verticalLabelPosition=bottom;verticalAlign=top;align=center;html=1;fontSize=12;fontStyle=0;aspect=fixed;shape=mxgraph.aws4.resourceIcon;resIcon=mxgraph.aws4.api_gateway;labelBackgroundColor=#ffffff;" parent="1" vertex="1">
          <mxGeometry x="369.5" y="337.5" width="78" height="78" as="geometry" />
        </mxCell>
        <mxCell id="xVwqEHrUv4qcuta3dnkX-13" value="" style="strokeColor=#dddddd;shadow=1;strokeWidth=1;rounded=1;absoluteArcSize=1;arcSize=2;" vertex="1" parent="1">
          <mxGeometry x="-109.99666666666666" y="110.5" width="166.83333333333331" height="91" as="geometry" />
        </mxCell>
        <mxCell id="xVwqEHrUv4qcuta3dnkX-14" value="Cloud&#xa;CDN" style="editableCssRules=.*;html=1;fontColor=#999999;shape=image;verticalLabelPosition=middle;verticalAlign=middle;labelPosition=right;align=left;spacingLeft=20;part=1;points=[];imageAspect=0;image=data:image/svg+xml,PHN2ZyB4bWxucz0iaHR0cDovL3d3dy53My5vcmcvMjAwMC9zdmciIHhtbG5zOnY9Imh0dHBzOi8vdmVjdGEuaW8vbmFubyIgd2lkdGg9IjIwIiBoZWlnaHQ9IjIwIiB2aWV3Qm94PSIwIDAgMjAgMjAiPiYjeGE7CTxzdHlsZSB0eXBlPSJ0ZXh0L2NzcyI+JiN4YTsJLnN0MHtmaWxsOiM0Mjg1ZjQ7fSYjeGE7CS5zdDF7ZmlsbDojNjY5ZGY2O30mI3hhOwkuc3Qye2ZpbGw6I2FlY2JmYTt9JiN4YTsJPC9zdHlsZT4mI3hhOwk8cGF0aCBjbGFzcz0ic3QxIiBkPSJNMTMuMTMgNS42M1YzLjIxTDEwIDB2Mi40MXptMy43NSA3LjVMMjAgMTBoLTIuNWwtMy4xMiAzLjEzem0tMTMuNzUgMEwwIDEwaDIuNWwzLjEzIDMuMTN6bTEwIDEuMjV2Mi40MUwxMCAyMHYtMi40MXoiIGZpbGwtcnVsZT0iZXZlbm9kZCIvPiYjeGE7CTxwYXRoIGNsYXNzPSJzdDIiIGQ9Ik02Ljg4IDUuNjNMMTAgMi40MVYwTDYuODggMy4yMXpNMTcuNSAxMEgyMGwtMy4xMi0zLjEyaC0yLjV6bS0xNSAwSDBsMy4xMy0zLjEyaDIuNXptNC4zOCA0LjM4TDEwIDE3LjU5VjIwbC0zLjEyLTMuMjF6bTAtNy41aDYuMjV2Ni4yNUg2Ljg4eiIgZmlsbC1ydWxlPSJldmVub2RkIi8+JiN4YTsJPHBhdGggY2xhc3M9InN0MSIgZD0iTTYuODggMTMuMTNsNi4yNS02LjI1djYuMjV6IiBmaWxsLXJ1bGU9ImV2ZW5vZGQiLz4mI3hhOwk8cGF0aCBjbGFzcz0ic3QwIiBkPSJNMTAgMTBsMy4xMy0zLjEydjYuMjV6IiBmaWxsLXJ1bGU9ImV2ZW5vZGQiLz4mI3hhOzwvc3ZnPg==;" vertex="1" parent="xVwqEHrUv4qcuta3dnkX-13">
          <mxGeometry width="30" height="30" relative="1" as="geometry">
            <mxPoint x="15" y="15" as="offset" />
          </mxGeometry>
        </mxCell>
        <mxCell id="xVwqEHrUv4qcuta3dnkX-16" style="edgeStyle=orthogonalEdgeStyle;rounded=0;orthogonalLoop=1;jettySize=auto;html=1;" edge="1" parent="1" source="UEzPUAAOIrF-is8g5C7q-110" target="xVwqEHrUv4qcuta3dnkX-13">
          <mxGeometry relative="1" as="geometry">
            <Array as="points">
              <mxPoint x="10" y="280" />
            </Array>
          </mxGeometry>
        </mxCell>
        <mxCell id="xVwqEHrUv4qcuta3dnkX-20" value="HTTPS" style="edgeLabel;html=1;align=center;verticalAlign=middle;resizable=0;points=[];" vertex="1" connectable="0" parent="xVwqEHrUv4qcuta3dnkX-16">
          <mxGeometry x="-0.1192" y="-3" relative="1" as="geometry">
            <mxPoint as="offset" />
          </mxGeometry>
        </mxCell>
        <mxCell id="xVwqEHrUv4qcuta3dnkX-30" style="edgeStyle=orthogonalEdgeStyle;rounded=0;orthogonalLoop=1;jettySize=auto;html=1;" edge="1" parent="1" source="xVwqEHrUv4qcuta3dnkX-27" target="xVwqEHrUv4qcuta3dnkX-29">
          <mxGeometry relative="1" as="geometry" />
        </mxCell>
        <mxCell id="xVwqEHrUv4qcuta3dnkX-40" style="edgeStyle=orthogonalEdgeStyle;rounded=0;orthogonalLoop=1;jettySize=auto;html=1;" edge="1" parent="1" source="xVwqEHrUv4qcuta3dnkX-27" target="xVwqEHrUv4qcuta3dnkX-39">
          <mxGeometry relative="1" as="geometry">
            <Array as="points">
              <mxPoint x="590" y="263" />
            </Array>
          </mxGeometry>
        </mxCell>
        <mxCell id="xVwqEHrUv4qcuta3dnkX-27" value="Ecommerce System" style="outlineConnect=0;fontColor=#232F3E;gradientColor=#945DF2;gradientDirection=north;fillColor=#5A30B5;strokeColor=#ffffff;dashed=0;verticalLabelPosition=bottom;verticalAlign=top;align=center;html=1;fontSize=12;fontStyle=0;aspect=fixed;shape=image;resIcon=mxgraph.aws4.api_gateway;labelBackgroundColor=#ffffff;whiteSpace=wrap;imageAspect=0;image=https://cdn0.iconfinder.com/data/icons/e-commerce-line-style/32/ecommerce_line_style-07-128.png;" vertex="1" parent="1">
          <mxGeometry x="530" y="60" width="78" height="78" as="geometry" />
        </mxCell>
        <mxCell id="xVwqEHrUv4qcuta3dnkX-29" value="Account Service" style="sketch=0;outlineConnect=0;fontColor=#232F3E;gradientColor=none;fillColor=#E7157B;strokeColor=none;dashed=0;verticalLabelPosition=bottom;verticalAlign=top;align=center;html=1;fontSize=12;fontStyle=0;aspect=fixed;pointerEvents=1;shape=mxgraph.aws4.organizations_account;" vertex="1" parent="1">
          <mxGeometry x="900" y="60" width="74" height="78" as="geometry" />
        </mxCell>
        <mxCell id="xVwqEHrUv4qcuta3dnkX-39" value="Products Service" style="shape=image;verticalLabelPosition=bottom;labelBackgroundColor=default;verticalAlign=top;aspect=fixed;imageAspect=0;image=data:image/png,iVBORw0KGgoAAAANSUhEUgAABDgAAAQ4CAYAAADsEGyPAAAAAXNSR0IArs4c6QAAIABJREFUeF7s3Q/8fms5J/rrGk3K30yEvZuGw8jB+BNTYSQhKW1K/qQpGkxKQhM6RCUOJqTJTiMnCh1EUSqdRDWkOkUjZRyDMe2S/40/Raa5zu/Js+0/tX/P93m+a6173et+f1+v3+uXvmvd1329r3srH+tZT4YfAgQIECBAgAABAgQIECBAgEDnAtn5/m2fAAECBAgQIECAAAECBAgQIBACDoeAAAECBAgQIECAAAECBAgQ6F5AwNH9CDVAgAABAgQIECBAgAABAgQICDicAQIECBAgQIAAAQIECBAgQKB7AQFH9yPUAAECBAgQIECAAAECBAgQICDgcAYIECBAgAABAgQIECBAgACB7gUEHN2PUAMECBAgQIAAAQIECBAgQICAgMMZIECAAAECBAgQIECAAAECBLoXEHB0P0INECBAgAABAgQIECBAgAABAgIOZ4AAAQIECBAgQIAAAQIECBDoXkDA0f0INUCAAAECBAgQIECAAAECBAgIOJwBAgQIECBAgAABAgQIECBAoHsBAUf3I9QAAQIECBAgQIAAAQIECBAgIOBwBggQIECAAAECBAgQIECAAIHuBQQc3Y9QAwQIECBAgAABAgQIECBAgICAwxkgQIAAAQIECBAgQIAAAQIEuhcQcHQ/Qg0QIECAAAECBAgQIECAAAECAg5ngAABAgQIECBAgAABAgQIEOheQMDR/Qg1QIAAAQIECBAgQIAAAQIECAg4nAECBAgQIECAAAECBAgQIECgewEBR/cj1AABAgQIECBAgAABAgQIECAg4HAGCBAgQIAAAQIECBAgQIAAge4FBBzdj1ADBAgQIECAAAECBAgQIECAgIDDGSBAgAABAgQIECBAgAABAgS6FxBwdD9CDRAgQIAAAQIECBAgQIAAAQICDmeAAAECBAgQIECAAAECBAgQ6F5AwNH9CDVAgAABAgQIECBAgAABAgQICDicAQIECBAgQIAAAQIECBAgQKB7AQFH9yPUAAECBAgQIECAAAECBAgQICDgcAYIECBAgAABAgQIECBAgACB7gUEHN2PUAMECBAgQIAAAQIECBAgQICAgMMZIECAAAECBAgQIECAAAECBLoXEHB0P0INECBAgAABAgQIECBAgAABAgIOZ4AAAQIECBAgQIAAAQIECBDoXkDA0f0INUCAAAECBAgQIECAAAECBAgIOJwBAgQIECBAgAABAgQIECBAoHsBAUf3I9QAAQIECBAgQIAAAQIECBAgIOBwBggQIECAAAECBAgQIECAAIHuBQQc3Y9QAwQIECBAgAABAgQIECBAgICAwxkgQIAAAQIECBAgQIAAAQIEuhcQcHQ/Qg0QIECAAAECBAgQIECAAAECAg5ngAABAgQIECBAgAABAgQIEOheQMDR/Qg1QIAAAQIECBAgQIAAAQIECAg4nAECBAgQIECAAAECBAgQIECgewEBR/cj1AABAgQIECBAgAABAgQIECAg4HAGCBAgQIAAAQIECBAgQIAAge4FBBzdj1ADBAgQIECAAAECBAgQIECAgIDDGSBAgAABAgQIECBAgAABAgS6FxBwdD9CDRAgQIAAAQIECBAgQIAAAQICDmeAAAECBAgQIECAAAECBAgQ6F5AwNH9CDVAgAABAgQIECBAgAABAgQICDicAQIECBAgQIAAAQIECBAgQKB7AQFH9yPUAAECBAgQIECAAAECBAgQICDgcAYIECBAgAABAgQIECBAgACB7gUEHN2PUAMECBAgQIAAAQIECBAgQICAgMMZIECAAAECBAgQIECAAAECBLoXEHB0P0INECBAgAABAgQIECBAgAABAgIOZ4AAAQIECBAgQIAAAQIECBDoXkDA0f0INUCAAAECBAgQIECAAAECBAgIOJwBAgQIECBAgAABAgQIECBAoHsBAUf3I9QAAQIECBAgQIAAAQIECBAgIOBwBggQIECAAAECBAgQIECAAIHuBQQc3Y9QAwQIECBAgAABAgQIECBAgICAwxkgQIAAAQIECBAgQIAAAQIEuhcQcHQ/Qg0QIECAAAECBAgQIECAAAECAg5ngAABAgQIECBAgAABAgQIEOheQMDR/Qg1QIAAAQIECBAgQIAAAQIECAg4nAECBAgQIECAAAECBAgQIECgewEBR/cj1AABAgQIECBAgAABAgQIECAg4HAGCBAgQIAAAQIECBAgQIAAge4FBBzdj1ADBAgQIECAAAECBAgQIECAgIDDGSBAgAABAgQIECBAgAABAgS6FxBwdD9CDRAgQIAAAQIECBAgQIAAAQICDmeAAAECBAgQIECAAAECBAgQ6F5AwNH9CDVAgAABAgQIECBAgAABAgQICDicAQIECBAgQIAAAQIECBAgQKB7AQFH9yPUAAECBAgQIECAAAECBAgQICDgcAYIECBAgAABAgQIECBAgACB7gUEHN2PUAMECBAgQIAAAQIECBAgQICAgMMZIECAAAECBAgQIECAAAECBLoXEHB0P0INECBAgAABAgQIECBAgAABAgIOZ4AAAQIECBAgQIAAAQIECBDoXkDA0f0INUCAAAECBAgQIECAAAECBAgIOJwBAgQIECBAgAABAgQIECBAoHsBAUf3I9QAAQIECBAgQIAAAQIECBAgIOBwBggQIECAAAECBAgQIECAAIHuBQQc3Y9QAwQIECBAgAABAgQIECBAgICAwxkgQIAAAQIECBAgQIAAAQIEuhcQcHQ/Qg0QIECAAAECBAgQIECAAAECAg5ngAABAgQIECBAgAABAgQIEOheQMDR/Qg1QIAAAQIECBAgQIAAAQIECAg4nAECBAgQIECAAAECBAgQIECgewEBR/cj1AABAgQIECBAgAABAgQIECAg4HAGCBAgQIAAAQIECBAgQIAAge4FBBzdj1ADBAgQIECAAAECBAgQIECAgIDDGSBAgAABAgQIECBAgAABAgS6FxBwdD9CDRAgQIAAAQIECBAgQIAAAQICDmeAAAECBAgQIECAAAECBAgQ6F5AwNH9CDVAgAABAgQIECBAgAABAgQICDicAQIECBAgQIAAAQIECBAgQKB7AQFH9yPUAAECBAgQIECAAAECBAgQICDgcAYIECBAgAABAgQIECBAgACB7gUEHN2PUAMECBAgQIAAAQIECBAgQICAgMMZIECAAAECBAgQIECAAAECBLoXEHB0P0INECBAgAABAgQIECBAgAABAgIOZ4AAAQIECBAgQIAAAQIECBDoXkDA0f0INUCAAAECBAgQIECAAAECBAgIOJwBAgQIECBAgAABAgQIECBAoHsBAUf3I9QAAQIECBAgQIAAAQIECBAgIOBwBggQIECAAAECBAgQIECAAIHuBQQc3Y9QAwQIECBAgAABAgQIECBAgICAwxkgQIAAAQIECBAgQIAAAQIEuhcQcHQ/Qg0QIECAAAECBAgQIECAAAECAg5ngAABAgQIECBAgAABAgQIEOheQMDR/Qg1QIAAAQIECBAgQIAAAQIECAg4nAECBAgQIECAAAECBAgQIECgewEBR/cj1AABAgQIECBAgAABAgQIECAg4HAGCBAgQIAAAQIECBAgQIAAge4FBBzdj1ADBAgQIECAAAECBAgQIECAgIDDGSBAgAABAgQIECBAgAABAgS6FxBwdD9CDRAgQIAAAQIECBAgQIAAAQICDmeAAAECBAgQIECAAAECBAgQ6F5AwNH9CDVAgAABAgQIECBAgAABAgQICDicAQIECBAgQIAAAQIECBAgQKB7AQFH9yPUAAECBAgQIECAAAECBAgQICDgcAYIECBAgAABAgQIECBAgACB7gUEHN2PUAMECBAgQIAAAQIECBAgQICAgMMZIECAAAECBAgQIECAAAECBLoXEHB0P0INECBAgAABAgQIECBAgAABAgIOZ4AAAQIECBAgQIAAAQIECBDoXkDA0f0INUCAAAECBAgQIECAAAECBAgIOJwBAgQIECBAgAABAgQIECBAoHsBAUf3I9QAAQIECBAgQIAAAQIECBAgIOBwBggQIECAAAECBAgQIECAAIHuBQQc3Y9QAwQIECBAgAABAgQIECBAgICAwxkgQIAAAQIECBAgQIAAAQIEuhcQcHQ/Qg0QIECAAAECBAgQIECAAAECAg5ngAABAgQIECBAgAABAgQIEOheQMDR/Qg1QIAAAQIECBAgQIAAAQIECAg4nAECBAgQIECAAAECBAgQIECgewEBR/cj1AABAgQIECBAgAABAgQIECAg4HAGCBAgQIAAAQIECBAgQIAAge4FBBzdj1ADBAgQIECAAAECBAgQIECAgIDDGSBAgAABAgQIECBAgAABAgS6FxBwdD9CDRAgQIAAAQIECBAgQIAAAQICDmeAAAECBAgQIECAAAECBAgQ6F5AwNH9CDVAgAABAgQIECBAgAABAgQICDicAQIECBAgQIAAAQIECBAgQKB7AQFH9yPUAAECBAgQIECAAAECBAgQICDgcAYIECBAgAABAgQIECBAgACB7gUEHN2PUAMECBAgQIAAAQIECBAgQICAgMMZIECAAAECBAgQIECAAAECBLoXEHB0P0INECBAgAABAgQIECBAgAABAgIOZ4AAAQIECBAgQIAAAQIECBDoXkDA0f0INUCAAAECBAgQIECAAAECBAgIOJwBAgQIECBAgAABAgQIECBAoHsBAUf3I9QAAQIECBAgQIAAAQIECBAgIOBwBggQIECAAAECBAgQIECAAIHuBQQc3Y9QAwQIECBAgAABAgQIECBAgICAwxkgQIAAAQIECBAgQIAAAQIEuhcQcHQ/Qg0QIECAAAECBAgQIECAAAECAg5ngAABAgQIECBAgAABAgQIEOheQMDR/Qg1QIAAAQIECBAgQIAAAQIECAg4nAECBAgQIECAAAECBAgQIECgewEBR/cj1AABAgQIECBAgAABAgQIECAg4HAGCBAgQIAAAQIECBAgQIAAge4FBBzdj1ADBAgQIECAAAECBAgQIECAgIDDGSBAgAABAgQIECBAgAABAgS6FxBwdD9CDRAgQIAAAQIECBAgQIAAAQICDmeAAAECBAgQIECAAAECBAgQ6F5AwNH9CDVAgAABAgQIECBAgAABAgQICDicAQIECBAgQIAAAQIECBAgQKB7AQFH9yPUAAECBAgQIECAAAECBAgQICDgcAYIECBAgAABAgQIECBAgACB7gUEHN2PUAMECBAgQIAAAQIECBAgQICAgMMZIECAAAECBAgQIECAAAECBLoXEHB0P0INECBAgAABAgQIECBAgAABAgIOZ4AAAQIECBAgQIAAAQIECBDoXkDA0f0INUCAAAECBAgQIECAAAECBAgIOJwBAgQIECBAgAABAgQIECBAoHsBAUf3I9QAAQIECBAgQIAAAQIECBAgIOBwBggQIECAAAECBAgQIECAAIHuBQQc3Y9QAwQIECBAgAABAgQIECBAgICAwxkgQIAAAQIECBAgQIAAAQIEuhcQcHQ/Qg0QIECAAAECBAgQIECAAAECAg5ngAABAgQIECBAgAABAgQIEOheQMDR/Qg1QIAAAQIECBAgQIAAAQIECAg4nAECBAgQIECAAAECBAgQIECgewEBR/cj1AABAgQIECBAgAABAgQIECAg4HAGCBAgQIAAAQIECBAgQIAAge4FBBzdj1ADBAgQIECAAAECBAgQIECAgIDDGSBAgAABAgQIECBAgAABAgS6FxBwdD9CDRAgQIAAAQIECBAgQIAAAQICDmeAAAECBAgQIECAAAECBAgQ6F5AwNH9CDVAgAABAgQIECBAgAABAgQICDicAQIECBAgQIAAAQIECBAgQKB7AQFH9yPUAAECBAgQIECAAAECBAgQICDgcAYIECBAgAABAgQIECBAgACB7gUEHN2PUAMECBAgQIAAAQIECBAgQICAgMMZIECAAAECBAgQIECAAAECBLoXEHB0P0INECBAgAABAgQIECBAgAABAgIOZ4AAAQIECBAgQIAAAQIECBDoXkDA0f0INUCAAAECBAgQIECAAAECBAgIOJwBAgQIECBAgAABAgQIECBAoHsBAUf3I9QAAQIECBAgQIAAAQIECBAgIOBwBggQIECAAAECBAgQIECAAIHuBQQc3Y9QAwQIECBAgAABAgQIECBAgICAwxkgQIAAAQIECBAgQIAAAQIEuhcQcHQ/Qg0QIECAAAECBAgQIECAAAECAg5ngAABAgQIECBAgAABAgQIEOheQMDR/Qg1QIAAAQIECBAgQIAAAQIECAg4nAECBAgQIECAAAECBAgQIECgewEBR/cj1AABAgQIECBAgAABAgQIECAg4HAGCBAgQIAAAQIECBAgQIAAge4FBBzdj1ADBAgQIECAAAECBAgQIECAgIDDGSBAgAABAgQIECBAgAABAgS6FxBwdD9CDRAgQIDAXAJV9UER8RERcWlE3GiuOtYlcAaBN0TEFRHxnzPzt89wvUsIECBAgMBwAgKO4UauYQIECBC4mEBV3TAi7hcR94qID6dFYIUCvxYRP5iZj1nh3myJAAECBAg0ExBwNKNXmAABAgTWJlBV942Ih0fEe61tb/ZD4O0IvD4iHpyZT6RDgAABAgQIRAg4nAICBAgQGF6gqt4lIp4cEXceHgNAjwI/HhFflJl/0+Pm7ZkAAQIECEwlIOCYStI6BAgQINClQFXt/rPwmRHx6V02YNME/l7gyRfezXEPGAQIECBAYGQBAcfI09c7AQIECERVfUNEfAsKAhsQuE9mfv8G+tACAQIECBA4SUDAcRKbmwgQIEBgCwJVdZOI+P2IuMEW+tHD8AJ/FhE3y8y/Hl4CAAECBAgMKSDgGHLsmiZAgACBnUBVPToiHkCDwIYEdi8d/Y4N9aMVAgQIECBwZgEBx5mpXEiAAAECWxOoqj+JiBtvrS/9DC3w8sz8mKEFNE+AAAECwwoIOIYdvcYJECAwtkBV3eLCt6a8fGwF3W9U4H0zc/cVsn4IECBAgMBQAgKOocatWQIECBC4UqCqviAifpQIgQ0K3D4zn7vBvrREgAABAgQuKiDgcEAIECBAYEiBqnpgRHzXkM1reusCvk1l6xPWHwECBAi8XQEBh4NBgAABAkMKVNXDI+Kbhmxe01sXeGhmfvPWm9QfAQIECBC4toCAw5kgQIAAgSEFBBxDjn2Uph+emQ8bpVl9EiBAgACBKwUEHM4CAQIECAwpUFW7/w/3Nw7ZvKa3LvDNmfnQrTepPwIECBAgcG0BAYczQYAAAQJDCniCY8ixj9K0JzhGmbQ+CRAgQOAaAgIOB4IAAQIEhhTwBMeQYx+laU9wjDJpfRIgQICAgMMZIECAAAECnuBwBjYs4AmODQ9XawQIECBw3QKe4HA6CBAgQGBIAU9wDDn2UZr2BMcok9YnAQIECHiCwxkgQIAAAQKe4HAGNizgCY4ND1drBAgQIOAJDmeAAAECBAhcQ8ATHA7EhgU8wbHh4WqNAAECBAQczgABAgQIEBBwOAOjCAg4Rpm0PgkQIEDgGgLeweFAECBAgMCQAp7gGHLsozTtIyqjTFqfBAgQICDgcAYIECBAgICAwxnYsIAnODY8XK0RIECAwHULeILD6SBAgACBIQUEHEOOfZSmBRyjTFqfBAgQIOAJDmeAAAECBAj4FhVnYMMCPqKy4eFqjQABAgQ8weEMECBAgACBawh4gsOB2LCAJzg2PFytESBAgICAwxkgQIAAAQICDmdgFAEBxyiT1icBAgQIXEPAOzgcCAIECBAYUsBHVIYc+yhN+4jKKJPWJwECBAgIOJwBAgQIECDgIyrOwIYFPMGx4eFqjQABAgSuW8ATHE4HAQIECAwpIOAYcuyjNC3gGGXS+iRAgAABT3A4AwQIECBAQMDhDGxYwEdUNjxcrREgQICAJzicAQIECBAgcA0BAYcDsWEBT3BseLhaI0CAAAEBhzNAgAABAgQEHM7AKAICjlEmrU8CBAgQuIaAd3A4EAQIECAwpIBvURly7KM07SMqo0xanwQIECAg4HAGCBAgQICAj6g4AxsW8ATHhoerNQIECBC4bgFPcDgdBAgQIDCkgIBjyLGP0rSAY5RJ65MAAQIEPMHhDBAgQIAAAQGHM7BhAQHHhoerNQIECBDwBIczQIAAAQIEriEg4HAgNiwg4NjwcLVGgAABAgIOZ4AAAQIECAg4nIFRBLxkdJRJ65MAAQIEriHgHRwOBAECBAgMKeAJjiHHPkrTnuAYZdL6JECAAAEBhzNAgAABAgQEHM7AhgU8wbHh4WqNAAECBK5bwBMcTgcBAgQIDCkg4Bhy7KM07QmOUSatTwIECBDwBIczQIAAAQIEBBzOwIYFBBwbHq7WCBAgQMATHM4AAQIECBC4hkBV3TYidn/8ENiawPMz8/lba0o/BAgQIEDgkICPqBwS8nsCBAgQIECAAAECBAgQIEBg9QICjtWPyAYJECBAgAABAgQIECBAgACBQwICjkNCfk+AAAECBAgQIECAAAECBAisXkDAsfoR2SABAgQIECBAgAABAgQIECBwSEDAcUjI7wkQIECAAAECBAgQIECAAIHVCwg4Vj8iGyRAgAABAgQIECBAgAABAgQOCQg4Dgn5PQECBAgQIECAAAECBAgQILB6AQHH6kdkgwQIECBAgAABAgQIECBAgMAhAQHHISG/J0CAAAECBAgQIECAAAECBFYvIOBY/YhskAABAgQIECBAgAABAgQIEDgkIOA4JOT3BAgQIECAAAECBAgQIECAwOoFBByrH5ENEiBAgAABAgQIECBAgAABAocEBByHhPyeAAECBAgQIECAAAECBAgQWL2AgGP1I7JBAgQIECBAgAABAgQIECBA4JCAgOOQkN8TIECAAAECBAgQIECAAAECqxcQcKx+RDZIgAABAgQIECBAgAABAgQIHBIQcBwS8nsCBAgQIECAAAECBAgQIEBg9QICjtWPyAYJECBAgAABAgQIECBAgACBQwICjkNCfk+AAAECBAgQIECAAAECBAisXkDAsfoR2SABAgQIECBAgAABAgQIECBwSEDAcUjI7wkQIECAAAECBAgQIECAAIHVCwg4Vj8iGyRAgAABAgQIECBAgAABAgQOCQg4Dgn5PQECBAgQIECAAAECBAgQILB6AQHH6kdkgwQIECBAgAABAgQIECBAgMAhAQHHISG/J0CAAIFuBarqUyPiO7ttwMZHF3j3iLh1Zr5+dAj9EyBAgACBswgIOM6i5BoCBAgQ6E6gqi6NiBdHxE2727wNE/h7gU/OzF+AQYAAAQIECJxNQMBxNidXESBAgEBnAlX1nIi4fWfbtl0CVwp8RWZ+Lw4CBAgQIEDg7AICjrNbuZIAAQIEOhGoqkdFxFd1sl3bJHBtge/LzPthIUCAAAECBI4TEHAc5+VqAgQIEFi5QFV9SUQ8fuXbtD0C1yXwgsy8LR4CBAgQIEDgeAEBx/Fm7iBAgACBlQpU1cdFxC+vdHu2ReCQwB/vXyr6u4cu9HsCBAgQIEDgbQUEHE4FAQIECGxC4MLHUnbfOPGSiLj5JhrSxIgCd87Mnx2xcT0TIECAAIEpBAQcUyhagwABAgSaC1TVT0XEXZtvxAYInCbwdZn570+79Xx3VdX1M/PN51vF3QQIECBAoL2AgKP9DOyAAAECBM4pUFWPiIiHnHMZtxNoJfDEzPyiVsWr6kcj4r9m5kNb7UFdAgQIECAwhYCAYwpFaxAgQIBAM4GquntEPLnZBhQmcD6B/3f/3o3/db5lTru7qr4hIr5lf/fnZ+aPn7aSuwgQIECAQHsBAUf7GdgBAQIECJwoUFUfvn/vxg1OXMJtBFoK/PU+3PiNFpuoqrtExFOvVvuN+/28ssV+1CRAgAABAucVEHCcV9D9BAgQINBEoKquFxEvjoiPbrIBRQmcX+DzMvMnzr/M8StU1e5lvLt/fm50rbtftg853nL8qu4gQIAAAQJtBQQcbf1VJ0CAAIETBarqSRFxzxNvdxuB1gIPz8yHtdpEVe2+Tnn3tcpv7+dJmfmFrfamLgECBAgQOFVAwHGqnPsIECBAoJlAVX1dRHx7sw0oTOB8Ak/JzM893xKn311Vj4+ILzmwwoMz8ztOr+JOAgQIECCwvICAY3lzFQkQIEDgHAJVdeeIePo5lnArgZYCr9p/BOSvWmyiqr46Ir77jLUvy8xnnPFalxEgQIAAgeYCAo7mI7ABAgQIEDirQFV9wP69Ae951ntcR2BFArUPN17aYk9V9WkX6v/cEbX/ZL/f3zniHpcSIECAAIFmAgKOZvQKEyBAgMCxAlX1goi4zbH3uZ7ASgTunZk/1GIvVfVP9+HgJUfWf2FmfuKR97icAAECBAg0ERBwNGFXlAABAgSOFaiqx0bEfY+9z/UEViLwyMz82lZ7qarnRsSnnFj/cZnpn70T8dxGgAABAssJCDiWs1aJAAECBE4UqKr7R8RjTrzdbQRaCzwzMz+j1Saq6tER8YBz1v/KzPwP51zD7QQIECBAYFYBAcesvBYnQIAAgfMKVNXtIuJ5513H/QQaCfze/j0Wf9SiflXdJyIeN1HtT83Mn59oLcsQIECAAIHJBQQck5NakAABAgSmEqiq996/N+D9plrTOgQWFvikzHz+wjXfWq6qdu+r2b23Zqqf1+zDmtdNtaB1CBAgQIDAlAICjik1rUWAAAECkwpU1TMj4o6TLmoxAssJfHlm7t4ds/hPVe2+aejFEbH75qEpf56TmXeYckFrESBAgACBqQQEHFNJWocAAQIEJhWoqkdGxIMmXdRiBJYTuDwzd++OafJTVU+PiDvPVPxRmfnAmda2LAECBAgQOFlAwHEynRsJECBAYC6BqvqiiPjBuda3LoGZBX4xM3fvjmnyU1XfHhFfN3PxL83MH5i5huUJECBAgMBRAgKOo7hcTIAAAQJzC1TVLfeP1vvPqLmmRsaMAAAgAElEQVSxrT+HwB/u31Px3+ZY/NCaVXWviHjioesm+v3HZ+aLJlrLMgQIECBA4NwC/svjuQktQIAAAQJTCVTVu+zDjQ+dak3rEFhY4E6Z+ayFa761XFV9zP6fn3dYqP5v7cOcNyxUTxkCBAgQIHBRAQGHA0KAAAECqxGoqp+IiM9ZzYZshMBxAl+Tmd953C3TXF1V77QPN/7FNCueeZWnZeZdz3y1CwkQIECAwIwCAo4ZcS1NgAABAmcXqKqHXrj6YWe/w5UEViXwg5n5b1rtqKp+LCI+r1H9b83MhzSqrSwBAgQIEPgHAQGHw0CAAAECzQWqavfUxu7pDT8EehR4SWbeutXGq+qbIuLhrerv694jM5/ceA/KEyBAgMDgAgKOwQ+A9gkQINBaoKp279t4cUTs3r/hh0BvAn+5fw/Fq1tsvKruFhFPaVH7WjXfHBG3ysxXrGAvtkCAAAECgwoIOAYdvLYJECCwFoGq2oUbt1rLfuyDwJECn5OZP3nkPZNcfuGdNR+yDwffdZIFz7/ILty4dWb+7fmXsgIBAgQIEDheQMBxvJk7CBAgQGAigap6QkTce6LlLENgaYGHZuY3L130ynorDQefnJn3aGWiLgECBAiMLSDgGHv+uidAgEAzgap6UEQ8stkGFCZwPoEfz8zPP98Sp9+98nDwIZn5rad3504CBAgQIHCagIDjNDd3ESBAgMA5BKrq0yPiWedYwq0EWgq8cv9RjDe22ERVfU1E/PsWtY+oedfMfNoR17uUAAECBAicW0DAcW5CCxAgQIDAMQJV9c/27w14n2Pucy2BlQj8r/3LNF/WYj9VdaeI+NkWtY+s+YZ9CPRbR97ncgIECBAgcLKAgONkOjcSIECAwCkCVfW8iLjdKfe6h8AKBL4wM5/UYh9V9f77cPAmLeqfUPNFmfnxJ9znFgIECBAgcJKAgOMkNjcRIECAwCkCVfWYiLj/Kfe6h8AKBL4jMx/cah9V9YsRcdtW9U+s+wOZ+aUn3us2AgQIECBwlICA4yguFxMgQIDAqQJV9WUR8X2n3u8+Ao0FfjYz79xqD1V1eUTcr1X9c9Z9YGY+6pxruJ0AAQIECBwUEHAcJHIBAQIECJxXoKpuExEvOO867ifQSOB39+/d+JMW9avqyyPie1vUnrDmHTLzOROuZykCBAgQIPA2AgIOh4IAAQIEZhW48LGUG0fESyLiA2YtZHEC8wncNjObBHRV9UkR8QvztbbYyq/bv3T0NYtVVIgAAQIEhhMQcAw3cg0TIEBgWYGq+pmIuGzZqqoRmEzgfpnZ5KNVVfXe+5eKvt9k3bRd6HmZ+Sltt6A6AQIECGxZQMCx5enqjQABAo0FqurbIqLZSxkbt698/wLfm5lf0aqNqnpmRNyxVf2Z6j4mMx8w09qWJUCAAIHBBQQcgx8A7RMgQGAugaq6Z0Q0+TrNuXqy7lACv5CZn9yq46p6ZEQ8qFX9meveNzMfN3MNyxMgQIDAgAICjgGHrmUCBAjMLVBVt9i/d+N6c9eyPoEZBF6/f1/E78+w9sElq+reEfGEgxf2fcEnZuYL+27B7gkQIEBgbQICjrVNxH4IECDQuUBV3WD/3oCP6LwV2x9X4I6Z+ewW7VfVrfb//LQov2TN39mHSE2+mWbJRtUiQIAAgeUEBBzLWatEgACBIQSq6skRcfchmtXkFgUelJnf1aKxqnrXfbjxIS3qN6j5jMz0AuIG8EoSIEBgqwICjq1OVl8ECBBoIFBV3xAR39KgtJIEphB4QmZ+8RQLnbJGVf1kRHz2Kfd2fM93ZKYXEXc8QFsnQIDAmgQEHGuahr0QIECgY4GquktEPLXjFmx9bIEXZ+bHtiKoqm+OiG9sVb9x3S/MTC8kbjwE5QkQILAFAQHHFqaoBwIECDQWqKqb7x+tv1HjrShP4BSBv9i/D+I3T7n5vPdU1edHxP993nU6vv8te/+XddyDrRMgQIDACgQEHCsYgi0QIECgd4Gq+uWI+Lje+7D/YQXulpk/1aL7qvrwfTh4wxb1V1TzlfuQ440r2pOtECBAgEBnAgKOzgZmuwQIEFibQFV9f0R86dr2ZT8EzijwTZn5iDNeO+llVbX7GuUXR8RHT7pwv4v9eGbunmbxQ4AAAQIEThIQcJzE5iYCBAgQ2AlU1VdFxKNoEOhU4Mcys9k3/lTV7r0T9+zUbq5tPzQzd+8j8UOAAAECBI4WEHAcTeYGAgQIENiHG7ePiOfQINCpwK/vPxLxphb7r6rdN4d8W4vaHdT83Mx8Sgf7tEUCBAgQWJmAgGNlA7EdAgQI9CBQVZfuH62/aQ/7tUcC1xL4n/tw4+UtZKrqsoj4mRa1O6n5V/v5vKqT/domAQIECKxEQMCxkkHYBgECBHoSqKrdkxu7Jzj8EOhR4F6Z+cMtNl5VH7gPB2/con5HNV+6Dzmqoz3bKgECBAg0FhBwNB6A8gQIEOhNoKp279zYvXvDD4EeBb49M/+PVhuvqhdGxCe0qt9Z3R/KzHt3tmfbJUCAAIGGAgKOhvhKEyBAoDeBqvqSiHh8b/u2XwJ7gadn5me20qiqx0XEfVrV77Tu12bmIzvdu20TIECAwMICAo6FwZUjQIBArwJV9XER8cu97t++hxf4r/uPPPxpC4mqekBEPLpF7Q3U/IzMfOYG+tACAQIECMwsIOCYGdjyBAgQ2IJAVd1o/96Am2+hHz0MKXCbzPxPLTqvqk+JiOe2qL2Rmn+0D6d+byP9aIMAAQIEZhIQcMwEa1kCBAhsSaCqnhoRd9lST3oZSuDLMvM/tujYNw5Npv78zPykyVazEAECBAhsUkDAscmxaooAAQLTCVTVIyLiIdOtaCUCiwr8h8z8ykUrXq2YbxyaVP6xmfnlk65oMQIECBDYlICAY1Pj1AwBAgSmFaiqu0fEk6dd1WoEFhP4+cz81MWqXauQbxyaRf7+mXn5LCtblAABAgS6FxBwdD9CDRAgQGAegQsfS/nwiHhJRNxgngpWJTCrwOv27214zaxVrmPxqvrSiPj+FrUHqHm7zPzFAfrUIgECBAgcKSDgOBLM5QQIEBhBoKqut3+p6EeP0K8eNylwh8x8TovOqurjI+KXWtQepOZ/24dXfzhIv9okQIAAgTMKCDjOCOUyAgQIjCRQVU+KiHuO1LNeNyXwwMx8VIuOquo99uHgB7WoP1DNZ2fmHQfqV6sECBAgcAYBAccZkFxCgACBkQSq6sER8W0j9azXTQn8QGbuPh7S5KeqnhYRn9Wk+HhFvyszHzRe2zomQIAAgesSEHA4GwQIECDwDwJVdeeIeDoSAp0KvCgzdx8PafJTVd8aEV/fpPi4Rb84M58wbvs6J0CAAIGrCwg4nAcCBAgQeKtAVX3A/tH690RCoEOBN+zfy/BbLfZeVfeIiB9pUVvN+NjMfDEHAgQIECAg4HAGCBAgQODKgOMFEXEbHAQ6FbhrZu4+HrL4T1V91D4cvP7ixRXcCfzmPtz6CxwECBAgMLaAgGPs+eueAAECV4Yb3xcRX4aDQKcCD8nM3cdDFv+pqnfchxsfuXhxBa8u8FOZeTckBAgQIDC2gIBj7PnrngABAruPptw/Ih6DgkCnAk/OzN3HQ5r8VNWPRsQXNCmu6LUFHpGZ34SFAAECBMYVEHCMO3udEyBAYBdu3C4inoeCQKcCr9h/NOFvW+y/qr4hIr6lRW01r1Pg7pn5Y3wIECBAYEwBAceYc9c1AQIEduHGe0fESyLin+Eg0KHAm/fhxq+12HtV3SUintqitpoXFXjT/lz8OicCBAgQGE9AwDHezHVMgACBtwpU1TMj4o44CHQq8K8zc/fxkMV/quqD9+/dePfFiyt4FoGX70OO/3mWi11DgAABAtsREHBsZ5Y6IUCAwJkFquqREfGgM9/gQgLrEvg/M3P38ZAmP1X1ooj42CbFFT2rwA9n5r3OerHrCBAgQGAbAgKObcxRFwQIEDizQFXdOyKecOYbXEhgXQI/nZm7j4c0+amqH4iIL25SXNFjBb4+M7/t2JtcT4AAAQL9Cgg4+p2dnRMgQOBogaq65f69G0ff6wYCKxD4//YfPfjzFnupqgdGxHe1qK3myQKflZk/c/LdbiRAgACBrgQEHF2Ny2YJECBwukBVvcv+vQEfevoq7iTQVOBfZeYvt9hBVd0hIp7doraa5xL4s30o9tvnWsXNBAgQINCFgICjizHZJAECBM4vUFU/ERGfc/6VrECgicC/zczHt6hcVTfbh4Pv26K+mucW+KXM/IRzr2IBAgQIEFi9gIBj9SOyQQIECJxfoKoeemGVh51/JSsQaCLwPZn51U0q//03Dv18RHxyq/rqTiLw/Zl5n0lWsggBAgQIrFZAwLHa0dgYAQIEphGoqs/aPaI9zWpWIbC8QGY+ePmqf1+xqr69VW11Jxf4w8x81OSrWpAAAQIEViMg4FjNKGyEAAECBAgQIECAAAECBAgQOFVAwHGqnPsIECBAgAABAgQIECBAgACB1QgIOFYzChshQIAAAQIECBAgQIAAAQIEThUQcJwq5z4CBAgQIECAAAECBAgQIEBgNQICjtWMwkYIECBAgAABAgQIECBAgACBUwUEHKfKuY8AAQIECBAgQIAAAQIECBBYjYCAYzWjsBECBAgQIECAAAECBAgQIEDgVAEBx6ly7iNAgAABAgQIECBAgAABAgRWIyDgWM0obIQAAQIECBAgQIAAAQIECBA4VUDAcaqc+wgQIECAAAECBAgQIECAAIHVCAg4VjMKGyFAgAABAgQIECBAgAABAgROFRBwnCrnPgIECBAgQIAAAQIECBAgQGA1AgKO1YzCRggQIECAAAECBAgQIECAAIFTBQQcp8q5jwABAgQIECBAgAABAgQIEFiNgIBjNaOwEQIECBAgQIAAAQIECBAgQOBUAQHHqXLuI0CAAAECBAgQIECAAAECBFYjIOBYzShshAABAgQIECBAgAABAgQIEDhVQMBxqpz7CBAgQIAAAQIECBAgQIAAgdUICDhWMwobIUCAAAECBAgQIECAAAECBE4VEHCcKuc+AgQIECBAgAABAgQIECBAYDUCAo7VjMJGCBAgQIAAAQIECBAgQIAAgVMFBBynyrmPAAECBAgQIECAAAECBAgQWI2AgGM1o7ARAgQIECBAgAABAgQIECBA4FQBAcepcu4jQIAAAQIECBAgQIAAAQIEViMg4FjNKGyEAAEChwWq6qsi4rMOX+kKAt0JfH1mvmjOXVfVUyLiveasYe3NCTwtMx+9ua40RIAAgY0KCDg2OlhtESCwTYGqujwi7rfN7nQ1uMBlmfmMOQ2q6oqIuHTOGtbenMDlmXn/zXWlIQIECGxUQMCx0cFqiwCBbQpU1WMj4r7b7E5Xgwt8ZmY+fU6DqnptRFwyZw1rb07gsZn55ZvrSkMECBDYqICAY6OD1RYBAtsU8ATHNueqq7cKeILDQVijgCc41jgVeyJAgMB1CAg4HA0CBAh0JOAJjo6GZavHCniC41gx1y8h4AmOJZTVIECAwEQCAo6JIC1DgACBJQQEHEsoq9FIQMDRCF7ZiwoIOBwQAgQIdCQg4OhoWLZKgAABH1FxBjYs4CMqGx5ux635iErHw7N1AgTGExBwjDdzHRMg0LGAJzg6Hp6tHxLwBMchIb9vIeAJjhbqahIgQOBEAQHHiXBuI0CAQAsBAUcLdTUXEhBwLAStzFECAo6juFxMgACBtgICjrb+qhMgQOAoAQHHUVwu7ktgiYDjioi4tC8Wu20s4CMqjQegPAECBI4REHAco+VaAgQINBYQcDQegPJzCiwRcLw2Ii6Zswlrb07AExybG6mGCBDYsoCAY8vT1RsBApsTEHBsbqQaukpAwOE0rFFAwLHGqdgTAQIErkNAwOFoECBAoCMBAUdHw7LVYwUEHMeKuX4JAQHHEspqECBAYCIBAcdEkJYhQIDAEgK+JnYJZTUaCfia2Ebwyl5UwDs4HBACBAh0JCDg6GhYtkqAAAFPcDgDGxbwBMeGh9txa57g6Hh4tk6AwHgCAo7xZq5jAgQ6FhBwdDw8Wz8kIOA4JOT3LQQEHC3U1SRAgMCJAgKOE+HcRoAAgRYCAo4W6mouJCDgWAhamaMEBBxHcbmYAAECbQUEHG39VSdAgMBRAgKOo7hc3JfAEgHHFRFxaV8sdttYwDs4Gg9AeQIECBwjIOA4Rsu1BAgQaCzgJaONB6D8nAJeMjqnrrVPFRBwnCrnPgIECDQQEHA0QFeSAAECpwp4guNUOfd1ILDEExyvjYhLOrCwxfUI+IjKemZhJwQIEDgoIOA4SOQCAgQIrEdAwLGeWdjJ5AICjslJLTiBgIBjAkRLECBAYCkBAcdS0uoQIEBgAgEBxwSIllirgIBjrZMZe18CjrHnr3sCBDoTEHB0NjDbJUBgbAEBx9jz33j3SwQcXjK68UM0Q3vewTEDqiUJECAwl4CAYy5Z6xIgQGAGAS8ZnQHVkmsR8JLRtUzCPq4uIOBwHggQINCRgICjo2HZKgECBDzB4QxsWGCJJzi8ZHTDB2im1nxEZSZYyxIgQGAOAQHHHKrWJECAwEwCAo6ZYC27BgEBxxqmYA/XFhBwOBMECBDoSEDA0dGwbJUAAQICDmdgwwICjg0Pt+PWBBwdD8/WCRAYT0DAMd7MdUyAQMcCAo6Oh2frhwSWCDi8ZPTQFPz+2gLeweFMECBAoCMBAUdHw7JVAgQIeMmoM7BhAS8Z3fBwO25NwNHx8GydAIHxBAQc481cxwQIdCzgCY6Oh2frhwSWeILDS0YPTcHvry3gIyrOBAECBDoSEHB0NCxbJUCAgIDDGdiwgIBjw8PtuDUBR8fDs3UCBMYTEHCMN3MdEyDQsYCAo+Ph2fohAQHHISG/byEg4GihriYBAgROFBBwnAjnNgIECLQQEHC0UFdzIQEBx0LQyhwlIOA4isvFBAgQaCsg4GjrrzoBAgSOEhBwHMXl4r4EBBx9zWuU3Qo4Rpm0PgkQ2ISAgGMTY9QEAQKjCAg4Rpn0kH0uEXD4mtghj9a5mvYtKuficzMBAgSWFRBwLOutGgECBM4lIOA4F5+b1y2wRMDhW1TWfQbWuDtPcKxxKvZEgACB6xAQcDgaBAgQ6EhAwNHRsGz1WAEBx7Firl9CQMCxhLIaBAgQmEhAwDERpGUIECCwhICAYwllNRoJCDgawSt7UQEBhwNCgACBjgQEHB0Ny1YJECAg4HAGNiwg4NjwcDtuTcDR8fBsnQCB8QQEHOPNXMcECHQsUFWXR8T9Om7B1glcl8BlmfmMOXmqag0vGX1DRPxKRLwuIv4gIt4yZ88drn39iLg0Im4aEbdbwf69ZHQFQ7AFAgQInFVAwHFWKdcRIEBgBQKe4FjBEGxhLoElnuBoGXA8NSIel5nPnQtwa+tW1TtFxJ0i4kERcctG/Qk4GsErS4AAgVMEBBynqLmHAAECjQQ8wdEIXtklBLb6BMfvXXhS4z6CjfMdoar64oj47gt/3u18Kx19t4DjaDI3ECBAoJ2AgKOdvcoECBA4WsATHEeTuaEfgSWe4Fj6a2JfEBF3ycw/72cM691pVX1gROyegHm/BXfpHRwLYitFgACB8woIOM4r6H4CBAgsKOAJjgWxlVpaYGtPcPx0Zt5lacSt16uqG0fEiyLigxbq1RMcC0ErQ4AAgSkEBBxTKFqDAAECCwl4gmMhaGVaCGzpCY5fj4hbZ+abWkBuvWZV7Z7g+NWIeI8FevUExwLIShAgQGAqAQHHVJLWIUCAwAICAo4FkJVoJbCVgKMi4sMy89WtIEeoW1X3jIgnLdCrgGMBZCUIECAwlYCAYypJ6xAgQGABAQHHAshKtBLYSsDxlAvhxue2QhypblW9chcmzdyzgGNmYMsTIEBgSgEBx5Sa1iJAgMDMAt7BMTOw5VsKbOUdHLuPprykJeQotfffrPIDM/frHRwzA1ueAAECUwoIOKbUtBYBAgRmFvAEx8zAlm8psIUnOF6fme/bEnGk2lV104h4zcw9e4JjZmDLEyBAYEoBAceUmtYiQIDAzAICjpmBLd9SYImA44qIuHTGJr8/M+8z4/qWvpZAVf2XiLj5jDCe4JgR19IECBCYWkDAMbWo9QgQIDCjgIBjRlxLtxZYIuB4bURcMmOj35SZj5hxfUu/bcDx9Ii484wwnuCYEdfSBAgQmFpAwDG1qPUIECAwo4B3cMyIa+nWAlt4B8eXZ+ZjW0OOVL+qHh0RD5ixZ09wzIhraQIECEwtIOCYWtR6BAgQmFHAExwz4lq6tcAWnuB4cGZ+R2vIkepX1eMiYs6PBXmCY6QDpVcCBLoXEHB0P0INECAwkoCAY6RpD9frEgHH3O/geFRmPnC4yTVsuKp+JiIum3ELnuCYEdfSBAgQmFpAwDG1qPUIECAwo4CPqMyIa+nWAlv4iMqzMvNOrSFHql9VvxMR/9uMPQs4ZsS1NAECBKYWEHBMLWo9AgQIzCjgCY4ZcS3dWmCJJzjmfsnomyPiRpn5ptaYI9Svqg+NiN+YuVcfUZkZ2PIECBCYUkDAMaWmtQgQIDCzgIBjZmDLtxRYIuCY+yMqO797ZuaPtIQcpXZVfXNEfOPM/XqCY2ZgyxMgQGBKAQHHlJrWIkCAwMwCPqIyM7DlWwps4SMqO7/fzcwPaAk5Qu2qeteI+O+7J2Zm7lfAMTOw5QkQIDClgIBjSk1rESBAYGYBAcfMwJZvKbCVgGNn+LWZ+ciWmFuvXVUPvdDjwxboU8CxALISBAgQmEpAwDGVpHUIECCwgICPqCyArEQrgSU+ojL3OziutNu9i+NWmfmKVphbrltVnxgRz4uId1igT+/gWABZCQIECEwlIOCYStI6BAgQWEDAExwLICvRSmBLT3DsDHff7nGbzHxdK9At1q2qW0bEcyPi3RbqzxMcC0ErQ4AAgSkEBBxTKFqDAAECCwl4gmMhaGVaCGzpCY4r/f4oIu6Qmb/WAnRrNavqcy58JeyTIuIGC/bmCY4FsZUiQIDAeQUEHOcVdD8BAgQWFBBwLIit1NICWww4doZ/FxE/HBHfkpm/tzTqFupV1ftceJno90TE5zXoR8DRAF1JAgQInCog4DhVzn0ECBBoIOAjKg3QlVxKYGsfUXl7bi+MiKdGxM9n5quWgu2xTlXdOiJ2H0e5VUR8ZkS8c6M+fESlEbyyBAgQOEVAwHGKmnsIECDQSEDA0Qhe2SUERgg4ru74xoj4zxGxeyGpn6sEdl//eosVgQg4VjQMWyFAgMAhAQHHISG/J0CAwIoEfERlRcOwlakFtvoRlamdrLesgI+oLOutGgECBM4lIOA4F5+bCRAgsKyAgGNZb9UWFRBwLMqt2BkFBBxnhHIZAQIE1iAg4FjDFOyBAAECZxTwEZUzQrmsR4HRPqLS44xG3LOPqIw4dT0TINCtgICj29HZOAECIwp4gmPEqQ/Tsyc4hhl1V416gqOrcdksAQKjCwg4Rj8B+idAoCsBAUdX47LZ4wQEHMd5uXoZAQHHMs6qECBAYBIBAcckjBYhQIDAMgICjmWcVWkiIOBowq7oAQEBhyNCgACBjgQEHB0Ny1YJECAg4HAGNiwg4NjwcDtuTcDR8fBsnQCB8QQEHOPNXMcECHQsIODoeHi2fkhAwHFIyO9bCAg4WqirSYAAgRMFBBwnwrmNAAECLQQEHC3U1VxIQMCxELQyRwkIOI7icjEBAgTaCgg42vqrToAAgaMEBBxHcbm4LwEBR1/zGmW3Ao5RJq1PAgQ2ISDg2MQYNUGAwCgCAo5RJj1knwKOIce++qYFHKsfkQ0SIEDgKgEBh9NAgACBjgQEHB0Ny1aPFRBwHCvm+iUEBBxLKKtBgACBiQQEHBNBWoYAAQJLCFTV5RFxvyVqqUFgYYHLMvMZc9asqisi4tI5a1h7cwKXZ+b9N9eVhggQILBRAQHHRgerLQIEtingCY5tzlVXbxXwBIeDsEYBT3CscSr2RIAAgesQEHA4GgQIEOhIQMDR0bBs9VgBAcexYq5fQkDAsYSyGgQIEJhIQMAxEaRlCBAgsISAgGMJZTUaCQg4GsEre1EBAYcDQoAAgY4EBBwdDctWCRAgIOBwBjYsIODY8HA7bk3A0fHwbJ0AgfEEBBzjzVzHBAh0LCDg6Hh4tn5IQMBxSMjvWwgIOFqoq0mAAIETBQQcJ8K5jQABAi0EBBwt1NVcSEDAsRC0MkcJCDiO4nIxAQIE2goIONr6q06AAIGjBHxN7FFcLu5LYJSvid19Fe4vRcTrIuIPIuItfY1p9t1ef/9VvjeNiE+NiE+YveLFC/ia2MYDUJ4AAQLHCAg4jtFyLQECBBoLCDgaD0D5OQW2HHD8ZUQ8JCL+r8z86zkRt7b2hafWbhIR/y4ivrZRbwKORvDKEiBA4BQBAccpau4hQIBAIwEfUWkEr+wSAkt8ROWK/dMBS/RzZY2nXXhS4z6Z+cdLFt1araq6eUQ8OSJusXBvAo6FwZUjQIDAeQQEHOfRcy8BAgQWFvAEx8Lgyi0psMUnOB6emQ9bEnHLtarqhhHxpIi424J9CjgWxFaKAAEC5xUQcJxX0P0ECBBYUMATHAtiK7W0wBJPcLw2Ii5ZqLGvz8xvW6jWMGWqavffXZ8SEZ+9UNNeMroQtDIECBCYQkDAMYWiNQgQILCQgCc4FoJWpoXAlp7geGJmflELxBFqVtUNIuJFEfFRC/TrCY4FkJUgQIDAVAICjqkkrUOAAIEFBAQcCyAr0UpgKwHHn0bE+2fm7sWifmYSqKpduPGrMy1/9WUFHAsgK0GAAIGpBAQcU0lahwABAgsICDgWQFailcBWAo6vyMzvbYU4Ut2qemJE3GvmngUcMwNbngABAlMKCDim1LQWAQIEZhbwDo6ZgS3fUmAL7+CoiHiPzPwfLSFHqV1Vt4+I58zcr3dwzAxseQIECEwpIOCYUtNaBAgQmFlAwO/I0t4AACAASURBVDEzsOVbCmwh4PiVzPy4logj1a6qd4yIXZi0+3uuHwHHXLLWJUCAwAwCAo4ZUC1JgACBuQR8RGUuWeuuQGALH1F5ZGZ+7Qosh9lCVf1iRNx2xoZ9RGVGXEsTIEBgagEBx9Si1iNAgMCMAp7gmBHX0q0FtvAEx7/LzO9uDTlS/ap6fER8yYw9e4JjRlxLEyBAYGoBAcfUotYjQIDAjAICjhlxLd1aYImA44qIuHTGRu+dmT804/qWvpZAVT30wr/1sBlhPMExI66lCRAgMLWAgGNqUesRIEBgRgEBx4y4lm4tsETA8dqIuGTGRh+Umd814/qWftuA49ER8YAZYTzBMSOupQkQIDC1gIBjalHrESBAYEYBAceMuJZuLbCFgOM7M/NrWkOOVL+qnhIRd5uxZwHHjLiWJkCAwNQCAo6pRa1HgACBGQUEHDPiWrq1wBYCjudn5ie1hhypflX9fkTcbMaeBRwz4lqaAAECUwsIOKYWtR4BAgRmFBBwzIhr6dYCWwg43hIR/yQz/6I15gj1q+oWEfHymXsVcMwMbHkCBAhMKSDgmFLTWgQIEJhZwNfEzgxs+ZYCW/ia2J3fV2fm97SEHKV2Vc39/o0dpZeMjnKg9EmAwCYEBBybGKMmCBAYRcATHKNMesg+t/AEx25wfxYR7+8pjnnPcFW9T0TsPp5y/XkrhSc4Zga2PAECBKYUEHBMqWktAgQIzCzgCY6ZgS3fUmArT3DsDB+Xmfdtibn12lW1+zreL1ygT09wLICsBAECBKYSEHBMJWkdAgQILCDgCY4FkJVoJbCVJziu9LtrZj6tFeaW61bVV0bEUh8D8gTHlg+T3ggQ2JyAgGNzI9UQAQJbFvAEx5anO3xvW3qCYzfMv4yIXU/PH36yEwJU1b+NiP844ZKHlvIExyEhvydAgMCKBAQcKxqGrRAgQOCQgIDjkJDfdyywtYDjylF8RWZ+b8dzWc3WG/3vPwHHak6AjRAgQOCwgIDjsJErCBAgsBqBRv8FfzX928imBbYacOyG9jsR8YiIeEpmvnHTU5yhuaq6Y0R8X0TcbIblDy0p4Dgk5PcECBBYkYCAY0XDsBUCBAgcEhBwHBLy+44FthxwXDmWN0XEsyPieRHxssx8acfzmm3rVfX+EXHTiPi0iPjsiPjg2YodXljAcdjIFQQIEFiNgIBjNaOwEQIECBwW8JLRw0au6FZgay8Z7XYQNn4NAS8ZdSAIECDQkYCAo6Nh2SoBAgQEHM7AhgUEHBsebsetCTg6Hp6tEyAwnoCAY7yZ65gAgY4FBBwdD8/WDwkIOA4J+X0LAQFHC3U1CRAgcKKAgONEOLcRIECghYCAo4W6mgsJCDgWglbmKAEBx1FcLiZAgEBbAQFHW3/VCRAgcJSAl4wexeXivgRGeMloXxOx252Al4w6BwQIEOhIQMDR0bBslQABAp7gcAY2LLDEExxXRMSlGzbU2vQCAo7pTa1IgACB2QQEHLPRWpgAAQLTCwg4pje14moElgg4XhsRl6ymYxvpQcBHVHqYkj0SIEBgLyDgcBQIECDQkYCAo6Nh2eqxAgKOY8Vcv4SAgGMJZTUIECAwkYCAYyJIyxAgQGAJAQHHEspqNBIQcDSCV/aiAgIOB4QAAQIdCQg4OhqWrRIgQEDA4QxsWEDAseHhdtyagKPj4dk6AQLjCQg4xpu5jgkQ6FjAt6h0PDxbPyTgW1QOCfl9CwEvGW2hriYBAgROFBBwnAjnNgIECLQQ8ARHC3U1FxLwBMdC0MocJeAJjqO4XEyAAIG2AgKOtv6qEyBA4CgBAcdRXC7uS0DA0de8RtmtgGOUSeuTAIFNCAg4NjFGTRAgMIqAgGOUSQ/Zp4BjyLGvvmkBx+pHZIMECBC4SkDA4TQQIECgIwEBR0fDstVjBQQcx4q5fgkBAccSymoQIEBgIgEBx0SQliFAgMASAl4yuoSyGo0EvGS0EbyyFxXwklEHhAABAh0JCDg6GpatEiBAQMBxpjPwPyLizyPiDW/n77+IiL+LiDdf7e+r/+ur/+5vIuJ6EXH9iPjHZ/j7HSPiRvs/7/F2/n6nM+1+3IsEHOPOfs2dCzjWPB17I0CAwLUEBByOBAECBDoSGDjg+OOIuCIiXrv/+zUR8bqI2P39D2FGZu7+9Wp/LnzE6CYRcWX4ceOIuFlEXBoR/3T/900jYvfnXVbbxHwbE3DMZ2vl0wUEHKfbuZMAAQKLCwg4FidXkAABAqcLbPgdHLsnK35j/+e3rx5mZObvnS7W551V9W77oGMXduwCkN3fHxIR/yIiPrTPrg7ueol3cOxCsp2nHwJnFRBwnFXKdQQIEFiBgIBjBUOwBQIECJxVYCNPcPxaRLw6Il4ZEb8eEa/KzP9+VgPXRVTVR+4Djw+LiN2fXfDxfp3beIKj8wFudPsCjo0OVlsECGxTQMCxzbnqigCBjQp0FnC8PiJ+NSJevg8zfiMzf3Ojo2neVlW98z7o2IUduz8fHREfFRE3bL65s21AwHE2J1ctKyDgWNZbNQIECJxLQMBxLj43EyBAYFmBFX9EZfcExi7MuDLQeFlm/tGyOqpdW6Cq/lFE3HwfdtwiInZ/dqHH7iMwa/tZ4iMqu3e4XLK2xu1n1QK+JnbV47E5AgQIXFNAwOFEECBAoCOBlTzBsXvh5wv2YcbLdk9oZOafdcQ4/Far6oMiYvcxl38ZER8TEbddAYonOFYwBFt4GwFPcDgUBAgQ6EhAwNHRsGyVAAECjZ7g+Mt9oPHciHheZr7KJLYnUFWfEhG3i4hP3YceSze5xBMcXjK69FT7ryfg6H+GOiBAYCABAcdAw9YqAQL9CywUcLw5In5lF2ZExM9HxEsz8y396+ngrAJV9e77sGMXeuz+7J74mPtniYDDR1TmnuL21vcRle3NVEcECGxYQMCx4eFqjQCB7QnM+BGVV+wDjd1TGi/MzDdtT09HpwpU1e69Fbug4477v2986loXuc9HVGZAteS5BTzBcW5CCxAgQGA5AQHHctYqESBA4NwCEwYcf71/OuNnIuLnMvMPzr05CwwjUFW3jIg7RcSn79/jMUXvAo4pFK0xtYCAY2pR6xEgQGBGAQHHjLiWJkCAwNQC5/yIyqsj4tkR8ayI+E+Z+XdT78964wlU1Xvun+zYPd1x+4h4jxMVfETlRDi3zSrgIyqz8lqcAAEC0woIOKb1tBoBAgRmFTgy4HhjRPzCPtR4Rma+ZtbNWXx4gap6h4j42KsFHh9xBIqA4wgsly4mIOBYjFohAgQInF9AwHF+QysQIEBgMYEzfkTl5yLiSRHxtMz8m8U2pxCBawlU1ftHxD0i4osi4gMOAPmIihO0RgEfUVnjVOyJAAEC1yEg4HA0CBAg0JHARZ7geFlE/EhE/Ghm/klHLdnqIAJV9dER8a8j4u4R8d5vp21PcAxyFjpr0xMcnQ3MdgkQGFtAwDH2/HVPgEBnAtd6guOKiHjihf/P+A9n5m911ortDixQVbt3deye7LhbRLzTnsITHAOfiRW37gmOFQ/H1ggQIHBtAQGHM0GAAIGOBKrq2yNi9xWdu1DjhR1t3VYJvI1AVd0wIu66f7LjMZm5ewHubD9VtQsFL52tgIW3KCDg2OJU9USAwGYFBBybHa3GCBAgQIAAgasLVNVrI+ISKgSOEPARlSOwXEqAAIHWAgKO1hNQnwABAgQIEFhEQMCxCPPWigg4tjZR/RAgsGkBAcemx6s5AgQIECBA4EoBH1FxFk4Q8BGVE9DcQoAAgVYCAo5W8uoSIECAAAECiwp4gmNR7q0U8wTHViapDwIEhhAQcAwxZk0SIECAAAECnuBwBk4Q8ATHCWhuIUCAQCsBAUcreXUJECBAgACBRQUEHItyb6WYgGMrk9QHAQJDCAg4hhizJgkQIECAAAECBAgQIECAwLYFBBzbnq/uCBAgQIAAAQIECBAgQIDAEAICjiHGrEkCBAiMIVBV7x0RN7nWn/eKiCv//XePiBtExD+OiOtf5O93vprY30TE3+3/vPkif++u+9OI+KOI+MOI+OP9v979z2/9k5l/PsYkdEmAAAECBAgQWF5AwLG8uYoECBAgcKRAVV0SEZdGxE33f943Im4WEbu/32cfaLznkcu2uvx1+8DjDyLitRHxmojY/XtX7P+8VhDSajTqEiBAgAABAj0LCDh6np69EyBAYCMCVXXDiPjIiLhFRPzzfYhx9UBjI52euY037sOPK0OPXQjyqoj41cz8L2dexYUECBAgQIAAgYEEBBwDDVurBAgQWINAVb1rRHzUPszYBRq7Px8cEe+whv11sIe/iohX7MKOq/15dWa+pYO92yIBAgQIECBAYDYBAcdstBYmQIAAgap6l4j42GuFGR9IZhaBl0bEr+1Dj5dl5i4A8UOAAAECBAgQGEZAwDHMqDVKgACBeQWq6h9FxIdFxK0j4lb7v//3iPCfNfPSX9fqu4+5vCwiXrz/8yuZ+fo2W1GVAAECBAgQIDC/gP/SOb+xCgQIENikQFX9k4j4V/sgYxdq/MuI2D2x4We9Art3eewCj1/Z/717p8ffrne7dkaAAAECBAgQOLuAgOPsVq4kQIDA0AJVtfuK1U+78H8Y3yEiPiki3m9okO00v/toy/9zIaj6ucz85e20pRMCBAgQIEBgNAEBx2gT1y8BAgSOEKiq3TebfPr+z+5dGtc74naX9ifw5xfemfKcCx8xevbuT2b+cX8t2DEBAgQIECAwqoCAY9TJ65sAAQJvR6Cq3i0ibr8PNHZPalwCaliBioiX78OOZ0XESzPzfw2roXECBAgQIEBg9QICjtWPyAYJECAwr0BV3Swi7h4Rd4qIT5i3mtU7Fviz/dMdz4yIp2Xm7iWmfggQIECAAAECqxEQcKxmFDZCgACB5QSq6qYR8QUR8TkR8THLVVZpIwK7cGMXdPzEhfPzs5n5NxvpSxsECBAgQIBAxwICjo6HZ+sECBA4RmAfauye1NiFGrtvPPFDYAqBv96FHPuw41nCjilIrUGAAAECBAicIiDgOEXNPQQIEOhEYB9qfF5EfG5E3LKTbdtmvwK7sOMZVws7fAVtv7O0cwIECBAg0J2AgKO7kdkwAQIELi5QVe+6//jJvS58/efH8SLQSGD3MZafvPB1wj+Umb/YaA/KEiBAgAABAgMJCDgGGrZWCRDYtkBV3SYi/s3+IyjvtO1uddeZwO9GxA/u/mTmazvbu+0SIECAAAECnQgIODoZlG0SIEDg7QlU1U32ocYu2PjnlAisXGD3NbPPjYgnRMRPZ+abV75f2yNAgAABAgQ6EhBwdDQsWyVAgMBOoKreISI+IyK+OCI+PSKuR4ZAhwK7r5390Yh4fGa+ssP92zIBAgQIECCwMgEBx8oGYjsECBC4mEBV7b7a9Xsi4r1IEdiQwCsi4h6Z+eoN9aQVAgQIECBAYGEBAcfC4MoRIEDgPAIXPpLy2Ii473nWcC+BlQp8ZmY+faV7sy0CBAgQIECgAwEBRwdDskUCBAhcKSDgcBY2LCDg2PBwtUaAAAECBJYQEHAsoawGAQIEJhIQcEwEaZk1Cgg41jgVeyJAgAABAh0JCDg6GpatEiBAQMDhDGxYYPaAo6pusWE/rc0kkJm/OtPSliVAgACBiQUEHBODWo4AAQJzCgg45tS1dmOBJQKOKy58a8uljftUvi+ByzPz/n1t2W4JECAwroCAY9zZ65wAgQ4FquryiLhfh1u3ZQKHBC7LzGccuug8v68qAcd5AMe8V8Ax5tx1TYBApwICjk4HZ9sECIwp4AmOMec+SNee4Bhk0J21KeDobGC2S4DA2AICjrHnr3sCBDoTEHB0NjDbPUZAwHGMlmuXEhBwLCWtDgECBCYQEHBMgGgJAgQILCUg4FhKWp0GAgKOBuhKHhQQcBwkcgEBAgTWIyDgWM8s7IQAAQIHBQQcB4lc0K+AgKPf2W155wKOLU9XbwQIbE5AwLG5kWqIAIEtCwg4tjzd4XsTcAx/BFYJIOBY5VhsigABAm9fQMDhZBAgQKAjAQFHR8Oy1WMFBBzHirl+CQEBxxLKahAgQGAiAQHHRJCWIUCAwBICviZ2CWU1Ggn4mthG8MpeVEDA4YAQIECgIwEBR0fDslUCBAh4gsMZ2LCAJzg2PNyOWxNwdDw8WydAYDwBAcd4M9cxAQIdCwg4Oh6erR8SEHAcEvL7FgICjhbqahIgQOBEAQHHiXBuI0CAQAsBAUcLdTUXEhBwLAStzFECAo6juFxMgACBtgICjrb+qhMgQOAoAQHHUVwu7ktAwNHXvEbZrYBjlEnrkwCBTQgIODYxRk0QIDCKgJeMjjLpIfv0ktEhx776pgUcqx+RDRIgQOAqAQGH00CAAIGOBDzB0dGwbPVYAU9wHCvm+iUEBBxLKKtBgACBiQQEHBNBWoYAAQJLCAg4llBWo5GAgKMRvLIXFRBwOCAECBDoSEDA0dGwbJUAAQICDmdgwwICjg0Pt+PWBBwdD8/WCRAYT0DAMd7MdUyAQMcCAo6Oh2frhwQEHIeE/L6FgICjhbqaBAgQOFFAwHEinNsIECDQQkDA0UJdzYUEBBwLQStzlICA4yguFxMgQKCtgICjrb/qBAgQOEpAwHEUl4v7EhBw9DWvUXYr4Bhl0vokQGATAgKOTYxREwQIjCIg4Bhl0kP2KeAYcuyrb1rAsfoR2SABAgSuEhBwOA0ECBDoSEDA0dGwbPVYAQHHsWKuX0JAwLGEshoECBCYSEDAMRGkZQgQILCEgIBjCWU1GgkIOBrBK3tRAQGHA0KAAIGOBAQcHQ3LVgkQIFBVl0fE/UgQ2KDAZZn5jDn7qqorIuLSOWtYe3MCAo7NjVRDBAhsWUDAseXp6o0Agc0JeIJjcyPV0FUCnuBwGtYoIOBY41TsiQABAtchIOBwNAgQINCRgICjo2HZ6rECAo5jxVy/hICAYwllNQgQIDCRgIBjIkjLECBAYAkBAccSymo0EhBwNIJX9qICAg4HhAABAh0JCDg6GpatEiBAQMDhDGxYQMCx4eF23JqAo+Ph2ToBAuMJCDjGm7mOCRDoWEDA0fHwbP2QgIDjkJDftxAQcLRQV5MAAQInCgg4ToRzGwECBFoICDhaqKu5kICAYyFoZY4SEHAcxeViAgQItBUQcLT1V50AAQJHCQg4juJycV8CAo6+5jXKbgUco0xanwQIbEJAwLGJMWqCAIFRBAQco0x6yD4FHEOOffVNCzhWPyIbJECAwFUCAg6ngQABAh0JCDg6GpatHisg4DhWzPVLCAg4llBWgwABAhMJCDgmgrQMAQIElhAQcCyhrEYjAQFHI3hlLyog4HBACBAg0JGAgKOjYdkqAQIEquryiLgfCQIbFLgsM58xZ19VdUVEXDpnDWtvTkDAsbmRaogAgS0LCDi2PF29ESCwOQFPcGxupBq6SsATHE7DGgUEHGucij0RIEDgOgQEHI4GAQIEOhIQcHQ0LFs9VkDAcayY65cQEHAsoawGAQIEJhIQcEwEaRkCBAgsISDgWEJZjUYCAo5G8MpeVEDA4YAQIECgIwEBR0fDslUCBAgIOJyBDQsIODY83I5bE3B0PDxbJ0BgPAEBx3gz1zEBAh0LCDg6Hp6tHxIQcBwS8vsWAgKOFupqEiBA4EQBAceJcG4jQIBACwEBRwt1NRcSEHAsBK3MUQICjqO4XEyAAIG2AgKOtv6qEyBA4CgBAcdRXC7uS0DA0de8RtmtgGOUSeuTAIFNCAg4NjFGTRAgMIqAgGOUSQ/Zp4BjyLGvvmkBx+pHZIMECBC4SkDA4TQQIECgIwEBR0fDstVjBQQcx4q5fgkBAccSymoQIEBgIgEBx0SQliFAgMASAgKOJZTVaCQg4GgEr+xFBQQcDggBAgQ6EhBwdDQsWyVAgICAwxnYsICAY8PD7bg1AUfHw7N1AgTGExBwjDdzHRMg0LGAgKPj4dn6IQEBxyEhv28hIOBooa4mAQIEThQQcJwI5zYCBAi0EBBwtFBXcyEBAcdC0MocJSDgOIrLxQQIEGgrIOBo6686AQIEjhIQcBzF5eK+BAQcfc1rlN0KOEaZtD4JENiEgIBjE2PUBAECowgIOEaZ9JB9CjiGHPvqmxZwrH5ENkiAAIGrBAQcTgMBAgQ6EhBwdDQsWz1WQMBxrJjrlxAQcCyhrAYBAgQmEhBwTARpGQIECCwhIOBYQlmNRgICjkbwyl5UQMDhgBAgQKAjAQFHR8OyVQIECAg4nIENCwg4NjzcjlsTcHQ8PFsnQGA8AQHHeDPXMQECHQsIODoenq0fEhBwHBLy+xYCAo4W6moSIEDgRAEBx4lwbiNAgEALAQFHC3U1FxIQcCwErcxRAgKOo7hcTIAAgbYCAo62/qoTIEDgKAEBx1FcLu5LQMDR17xG2a2AY5RJ65MAgU0ICDg2MUZNECAwioCAY5RJD9mngGPIsa++aQHH6kdkgwQIELhKQMDhNBAgQKAjAQFHR8Oy1WMFBBzHirl+CQEBxxLKahAgQGAiAQHHRJCWIUCAwBICAo4llNVoJCDgaASv7EUFBBwOCAECBDoSEHB0NCxbJUCAgIDDGdiwgIBjw8PtuDUBR8fDs3UCBMYTEHCMN3MdEyDQsUBVXR4R9+u4BVsncF0Cl2XmM+bkqaorIuLSOWtYe3MCAo7NjVRDBAhsWUDAseXp6o0Agc0JeIJjcyPV0FUCnuBwGtYoIOBY41TsiQABAtchIOBwNAgQINCRgICjo2HZ6rECAo5jxVy/hICAYwllNQgQIDCRgIBjIkjLECBAYAkBAccSymo0EhBwNIJX9qICAg4HhAABAh0JCDg6GpatEiBAQMDhDGxYQMCx4eF23JqAo+Ph2ToBAuMJCDjGm7mOCRDoWEDA0fHwbP2QgIDjkJDftxAQcLRQV5MAAQInCgg4ToRzGwECBFoICDhaqKu5kICAYyFoZY4SEHAcxeViAgQItBUQcLT1V50AAQJHCQg4juJycV8CAo6+5jXKbgUco0xanwQIbEJAwLGJMWqCAIFRBAQco0x6yD4FHEOOffVNCzhWPyIbJECAwFUCAg6ngQABAh0JCDg6GpatHisg4DhWzPVLCAg4llBWgwABAhMJCDgmgrQMAQIElhAQcCyhrEYjAQFHI3hlLyog4HBACBAg0JGAgKOjYdkqAQIEBBzOwIYFBBwbHm7HrQk4Oh6erRMgMJ6AgGO8meuYAIGOBQQcHQ/P1g8JCDgOCfl9CwEBRwt1NQkQIHCigIDjRDi3ESBAoIWAgKOFupoLCQg4FoJW5igBAcdRXC4mQIBAWwEBR1t/1QkQIHCUQFVdHhH3O+omFxPoQ+CyzHzGnFutqisi4tI5a1h7cwICjs2NVEMECGxZQMCx5enqjQCBzQl4gmNzI9XQVQKe4HAa1igg4FjjVOyJAAEC1yEg4HA0CBAg0JGAgKOjYdnqsQICjmPFXL+EgIBjCWU1CBAgMJGAgOP/b+9uf27bzroA3wPbWsCUUqzg2U1RBGNESW1BEBHTIDVt8NQYX6KBhKiJsWpM/GLCPyDf1ITDR0LUYLUxiKVUEkURAlhe5K2ISvHtHKRFxNoKBYrDvera7s3h7L2euc5cY8xx39dOds6hz1xzjPv6TaD5Zcz17ATpNgQIEBghoOAYoWyNSQIKjknwln2igILDA0KAAIGFBBQcC4VlqwQIEFBweAYSCyg4Eoe78GgKjoXDs3UCBOoJKDjqZW5iAgQWFlBwLByerV8SUHBcEvLzGQIKjhnq1iRAgMCVAgqOK+F8jAABAjMEFBwz1K05SEDBMQjaMpsEFBybuFxMgACBuQIKjrn+VidAgMAmAQXHJi4XryWg4Fgrryq7VXBUSdqcBAikEFBwpIjREAQIVBFQcFRJuuScCo6SsR9+aAXH4SOyQQIECDwUUHB4GggQILCQgIJjobBsdauAgmOrmOtHCCg4RihbgwABAjsJKDh2gnQbAgQIjBBQcIxQtsYkAQXHJHjLPlFAweEBIUCAwEICCo6FwrJVAgQIKDg8A4kFFByJw114NAXHwuHZOgEC9QQUHPUyNzEBAgsLKDgWDs/WLwkoOC4J+fkMAQXHDHVrEiBA4EoBBceVcD5GgACBGQIKjhnq1hwkoOAYBG2ZTQIKjk1cLiZAgMBcAQXHXH+rEyBAYJOAgmMTl4vXElBwrJVXld0qOKokbU4CBFIIKDhSxGgIAgSqCCg4qiRdck4FR8nYDz+0guPwEdkgAQIEHgooODwNBAgQWEhAwbFQWLa6VUDBsVXM9SMEFBwjlK1BgACBnQQUHDtBug0BAgRGCCg4RihbY5KAgmMSvGWfKKDg8IAQIEBgIQEFx0Jh2SoBAgQUHJ6BxAIKjsThLjyagmPh8GydAIF6AgqOepmbmACBhQUUHAuHZ+uXBBQcl4T8fIaAgmOGujUJECBwpYCC40o4HyNAgMAMAQXHDHVrDhJQcAyCtswmAQXHJi4XEyBAYK6AgmOuv9UJECCwSUDBsYnLxWsJKDjWyqvKbhUcVZI2JwECKQQUHCliNAQBAlUEFBxVki45p4KjZOyHH1rBcfiIbJAAAQIPBRQcngYCBAgsJKDgWCgsW90qoODYKub6EQIKjhHK1iBAgMBOAgqOnSDdhgABAiMEFBwjlK0xSUDBMQnesk8UUHB4QAgQILCQgIJjobBslQABAgoOz0BiAQVH4nAXHk3BsXB4tk6AQD0BBUe9zE1MgMDCAgqOhcOz9UsCCo5LQn4+Q0DBMUPdmgQIELhSQMFxJZyPESBAYIaAgmOGujUHCSg4BkFbZpOAgmMTl4sJECAwV0DBMdff6gQIENgkoODYxOXitQQUHGvlVWW3Co4qSZuTAIEUAgqOFDEaggCBKgIKjipJl5xTwVEy9sMPreA4fEQ2SIAAgYcCCg5PAwECBBYSUHAsFJatbhVQcGwVc/0IAQXHCGVrECBATtyPyQAAIABJREFUYCcBBcdOkG5DgACBEQIKjhHK1pgkoOCYBG/ZJwooODwgBAgQWEhAwbFQWLZKgAABBYdnILGAgiNxuAuPpuBYODxbJ0CgnoCCo17mJiZAYGEBBcfC4dn6JQEFxyUhP58hoOCYoW5NAgQIXCmg4LgSzscIECAwQ0DBMUPdmoMEFByDoC2zSUDBsYnLxQQIEJgroOCY6291AgQIbBJQcGzicvFaAgqOtfKqslsFR5WkzUmAQAoBBUeKGA1BgEAVAQVHlaRLzqngKBn74YdWcBw+IhskQIDAQwEFh6eBAAECCwn03p+JiLcttGVbJXBXgadba++868XXXNd7fzYi7l3zWZ8pK6DgKBu9wQkQWFFAwbFiavZMgEBZASc4ykZfYXAnOCqkvN6MCo71MrNjAgQKCyg4CodvdAIE1hNQcKyXmR3fWUDBcWcqFw4UUHAMxLYUAQIEXqyAguPFCvo8AQIEBgooOAZiW2q0gIJjtLj17iKg4LiLkmsIECBwEAEFx0GCsA0CBAjcRUDBcRcl1ywqoOBYNLjk21ZwJA/YeAQI5BJQcOTK0zQECCQXUHAkD7j2eAqO2vkfdXoFx1GTsS8CBAi8gICCw2NBgACBhQQUHAuFZatbBRQcW8VcP0JAwTFC2RoECBDYSUDBsROk2xAgQGCEgIJjhLI1JgkoOCbBW/aJAgoODwgBAgQWElBwLBSWrRIgQEDB4RlILKDgSBzuwqMpOBYOz9YJEKgnoOCol7mJCRBYWEDBsXB4tn5JQMFxScjPZwgoOGaoW5MAAQJXCig4roTzMQIECMwQ6L0/ExFvm7G2NQncWODp1to7b7lG7/3ZiLh3yzXcO52AgiNdpAYiQCCzgIIjc7pmI0AgnYCCY7dI/3dE/HJE/NL574N/f/SfH4mIl0TEyyLipRf++fG77azujRQcdbM/8uQKjiOnY28ECBB4noCCwyNBgACBhQQUHL8qrP8cEf81In4uIv7n+Z+P/vvpP/sfEfHBB9e01j50y7h776+KiFdGxCc/4Z8PfvYpEfHaiPjUW+5poXsrOBYKq9BWFRyFwjYqAQLrCyg41s/QBAQIFBIo8h0cH46I06sEz53/+ei/f+w/a619IEvsvffTKZHTaxOnv685/33+vz91PkWSZewXmsN3cGROd93ZFBzrZmfnBAgUFFBwFAzdyAQIrCuQrOA4vSbyYxHxIxHxo+e/P9Ja++l1E7rNznvvHxcRnxkRv/v893ed//nbIuLX3WbV4XdVcAwnt+AdBBQcd0ByCQECBI4ioOA4ShL2QYAAgTsILPyKyqnIeFBi/NCp2Git/cQdRnbJBYHe++dGxGef/37Oufg4nfhY7Y9XVFZLrMZ+FRw1cjYlAQJJBBQcSYI0BgECNQQWOMHxixHxwxHxA4/8/eHW2unLPP0ZJHD+LpA3RMTrz39P//4ZEXHk/7/vBMeg58MymwQUHJu4XEyAAIG5Akf+LzpzZaxOgACBAwocrOD4+Yg4ncb4/kfKjPe21j56QLryW+q9v+KRsuNUfJxKj8+KiNPrL0f4o+A4Qgr28HwBBYdnggABAgsJKDgWCstWCRAgMPkVldNvJPm2iPgXEfEdrbXTd2f4s7BA7/0TI+Lz7mf6ByPiSyPi908cxysqE/Et/VgBBYeHgwABAgsJKDgWCstWCRAgMPgEx+mExndGxD+LiH8eEf+mtdalkFfgXHicyo4/dL/E+pLz93mM+u8KTnDkfbRWnkzBsXJ69k6AQDmBUf+lpRysgQkQIHALgRsXHL8SEd97LjNOpcZ3+e6MW6S4zj3vnxh69bnseFB4fPoNd6/guCGuW18toOC4ms4HCRAgMF5AwTHe3IoECBC4WuAGr6j8VER8c0S8+1RstNY+dPXmfDC9QO/9d5xfZXlzRLwxIl6+49BeUdkR0612E1Bw7EbpRgQIELi9gILj9sZWIECAwG4COxUcp9dOvuVUarTWfnC3zblRKYHe+8efS45T2fF0RLz2RQIoOF4koI/fREDBcRNWNyVAgMBtBBQct3F1VwIECNxE4MpXVN4fEf/0XGp8a2vtgzfZnJuWFjif7nhLRJz+/oGIeNlGEK+obARz+RABBccQZosQIEBgHwEFxz6O7kKAAIEhAhsKjvdFxN85lRqtte8bsjmLEDgLnL+s9E3nkx1/IiJOv63l0h8FxyUhP58hoOCYoW5NAgQIXCmg4LgSzscIECAwQ+BCwfEzEfH2iPh7rbX3zNifNQk8X6D3fvqejj8aEV8eEX84Il7yGCUFh8fniAIKjiOmYk8ECBB4jICCw6NBgACBhQQe8x0c7zid1mitnb4s1B8ChxXovb8qIv5URHxFRPy+523Ud3AcNrnSG1NwlI7f8AQIrCag4FgtMfslQKC0wPkEx1+4/+WO3x4Rfzci3tFa+3BpFMMvKdB7/63nouN0suOzIsIJjiWTTL9pBUf6iA1IgEAmAQVHpjTNQoBAeoHe+xdHxE+21p5NP6wBywj03j8/In62tfYTtxy6937635t7t1zDvdMJKDjSRWogAgQyCyg4MqdrNgIECBAgQOD/Cyg4PAxXCCg4rkDzEQIECMwSUHDMkrcuAQIECBAgMFRAwTGUO8tiCo4sSZqDAIESAgqOEjEbkgABAgQIEFBweAauEFBwXIHmIwQIEJgloOCYJW9dAgQIECBAYKiAgmMod5bFFBxZkjQHAQIlBBQcJWI2JAECBAgQIKDg8AxcIaDguALNRwgQIDBLQMExS966BAgQIECAwFCB3vtXDl3QYikEWmtfn2IQQxAgQKCAgIKjQMhGJECAAAECBAgQIECAAAEC2QUUHNkTNh8BAgQIRO/9XkT8poj4pIh4eUS8NCJeduGfp2t6RPxSRPzy+e+Df3+hf34kIn42Ij7QWvsZ7AQIECBAgAABAmMFFBxjva1GgAABAjsJ9N4/MyJ+c0R82rm8OBUYD/6+OiI+9fw/v3KnJbfe5gOnsiMi3h8Rp8Ljwf/84J//LSKea609t/XGridAgAABAgQIEPi1AgoOTwUBAgQIHEqg9346ZfGaiDidunihf57+s0851KZf3GY+GhE/HRHPnv+eCo/Tvz/458f+vbV2OjXiDwECBAgQIECAwGMEFBweDQIECBCYJtB7/4yIeP3z/p5OX/jzqwVOr8r8h4j4gUf/ttZ+DhQBAgQIECBAgMD/E1BweBIIECBA4OYCvfePi4jf/rwi4/dExKzXR24+86AF/tPzSo/vb62dXoHxhwABAgQIECBQTkDBUS5yAxMgQOD2Ar3310bEF0TE50XEF0bE6yLiE26/shUi4vTdHt8XEd8dEf86It7TWvswGQIECBAgQIBAdgEFR/aEzUeAAIEbC/TeT7+V5PeeC41TqfH5EfHUjZd1+7sL/J+IeO+58PieiDj9/fHW2um1F38IECBAgAABAmkEFBxpojQIAQIExgicT2e88ZETGm8Ys7JVdhT40LnweE9EfFdEfHtr7ed3vL9bESBAgAABAgSGCyg4hpNbkAABAmsJ9N5fGhFffP91hzef//7OtSaw2zsI/GJE/Kv7p2/eff80zre01v7dHT7jEgIECBAgQIDAoQQUHIeKw2YIECBwDIHe++lXtH7ZudD4koj4DcfYmV0MEviPD8qO++XWt7XWfmHQupYhQIAAAQIECFwtoOC4ms4HCRAgkEfgfErji86Fxlsi4rPzTGeSFynwkdMrLI+c7jj9ulp/CBAgQIAAAQKHE1BwHC4SGyJAgMAYgXOp8aaI+JMR8daI+KQxK1tlcYF/GxH/4P6v/f2G1pqyY/EwbZ8AAQIECGQSUHBkStMsBAgQuCDQe3/J/S+VfLTUeCU0Ai9C4PTbWf5hRPx9ZceLUPRRAgQIECBAYBcBBccujG5CgACB4wqcS40vfeSkxicfd7d2trDAj57LjtPJjvctPIetEyBAgAABAosKKDgWDc62CRAgcEmg934qNb7i/PrJKy5d7+cEdhT4wYj4R+fXWH5yx/u6FQECBAgQIEDgsQIKDg8HAQIEEgn03j89Iv58RHxlRLwm0WhGWVOgn3/97Nfd/+Lad/htLGuGaNcECBAgQGAVAQXHKknZJwECBB4j0Hv/9RHxxyPiz97/bRdvjAj/t93TckSBD0XE2yPi61pr33PEDdoTAQIECBAgsLaA/xK8dn52T4BAYYHe++sj4s9FxJ+JCF8WWvhZWHD0029iOZ3q+PrW2n9fcP+2TIAAAQIECBxQQMFxwFBsiQABAo8T6L2ffpXr6Xs1TsXG60gRWFzgoxHxrnPZ8a7W2q8sPo/tEyBAgAABAhMFFBwT8S1NgACBrQK992ci4m1bP+d6AgsIPN1ae+cC+7RFAgQIECBA4KACCo6DBmNbBAgQeCEBBYfnIrGAgiNxuEYjQIAAAQIjBBQcI5StQYAAgZ0Eeu9fGxF/cafbuQ2BIwm8tbX2T460IXshQIAAAQIE1hJQcKyVl90SIFBcwAmO4g9A7vGd4Midr+kIECBAgMDNBRQcNye2AAECBPYTUHDsZ+lOhxO4ecHRe39HRLz6cJPb0JEFvrG19rePvEF7I0CAAIGHAgoOTwMBAgQWEui9f01E/KWFtmyrBO4q8Edaa99814uvua73/mxE3Lvmsz5TVuCZ+7/K+C+Xnd7gBAgQWExAwbFYYLZLgEBtAd/BUTv/5NPf/Ds4eu/PRcRTyR2Nt6/A17bWlMr7mrobAQIEbiag4LgZrRsTIEBgfwGvqOxv6o6HERjxiooTHIeJe5mNOMGxTFQ2SoAAgQgFh6eAAAECCwkoOBYKy1a3Cig4toq5foSAgmOEsjUIECCwk4CCYydItyFAgMAIAQXHCGVrTBJQcEyCt+wTBRQcHhACBAgsJKDgWCgsWyVAgIDv4PAMJBbwHRyJw114NN/BsXB4tk6AQD0BBUe9zE1MgMDCAk5wLByerV8ScILjkpCfzxBwgmOGujUJECBwpYCC40o4HyNAgMAMAQXHDHVrDhJQcAyCtswmAQXHJi4XEyBAYK6AgmOuv9UJECCwScArKpu4XLyWgFdU1sqrym69olIlaXMSIJBCQMGRIkZDECBQRcAJjipJl5zTCY6SsR9+aCc4Dh+RDRIgQOChgILD00CAAIGFBJzgWCgsW90q4ATHVjHXjxBwgmOEsjUIECCwk4CCYydItyFAgMAIASc4RihbY5KAExyT4C37RAEnODwgBAgQWEhAwbFQWLZKgAABJzg8A4kFnOBIHO7CoznBsXB4tk6AQD0BBUe9zE1MgMDCAk5wLByerV8ScILjkpCfzxBwgmOGujUJECBwpYCC40o4HyNAgMAMASc4Zqhbc5CAExyDoC2zScAJjk1cLiZAgMBcAQXHXH+rEyBAYJOAExybuFy8loATHGvlVWW3TnBUSdqcBAikEFBwpIjREAQIVBFwgqNK0iXndIKjZOyHH9oJjsNHZIMECBB4KKDg8DQQIEBgIQEnOBYKy1a3CjjBsVXM9SMEnOAYoWwNAgQI7CSg4NgJ0m0IECAwQkDBMULZGpMEFByT4C37RAEFhweEAAECCwkoOBYKy1YJECDgFRXPQGIBr6gkDnfh0byisnB4tk6AQD0BBUe9zE1MgMDCAgqOhcOz9UsCIwqOZyPi3qWN+DmBRwSc4PA4ECBAYCEBBcdCYdkqAQIEFByegcQCCo7E4S48moJj4fBsnQCBegIKjnqZm5gAgYUFfAfHwuHZ+iUB38FxScjPZwgoOGaoW5MAAQJXCig4roTzMQIECMwQcIJjhro1BwmMOMHxXEQ8NWgey+QQ8B0cOXI0BQECRQQUHEWCNiYBAjkEFBw5cjTFCwooODwYRxRQcBwxFXsiQIDAYwQUHB4NAgQILCTgFZWFwrLVrQJeUdkq5voRAl5RGaFsDQIECOwkoODYCdJtCBAgMELACY4RytaYJOAExyR4yz5RwAkODwgBAgQWElBwLBSWrRIgQMAJDs9AYgEnOBKHu/BoTnAsHJ6tEyBQT0DBUS9zExMgsLCAExwLh2frlwSc4Lgk5OczBJzgmKFuTQIECFwpoOC4Es7HCBAgMENAwTFD3ZqDBBQcg6Ats0lAwbGJy8UECBCYK6DgmOtvdQIECGwSUHBs4nLxWgIKjrXyqrJbBUeVpM1JgEAKAQVHihgNQYBAFQHfwVEl6ZJz+g6OkrEffmjfwXH4iGyQAAECDwUUHJ4GAgQILCTgBMdCYdnqVgEnOLaKuX6EgBMcI5StQYAAgZ0EFBw7QboNAQIERggoOEYoW2OSgIJjErxlnyig4PCAECBAYCEBBcdCYdkqAQIEFByegcQCCo7E4S48moJj4fBsnQCBegIKjnqZm5gAgYUFFBwLh2frlwQUHJeE/HyGgIJjhro1CRAgcKWAguNKOB8jQIDADAEFxwx1aw4SUHAMgrbMJgEFxyYuFxMgQGCugIJjrr/VCRAgsElAwbGJy8VrCSg41sqrym4VHFWSNicBAikEFBwpYjQEAQJVBPya2CpJl5zTr4ktGfvhh/ZrYg8fkQ0SIEDgoYCCw9NAgACBhQSc4FgoLFvdKuAEx1Yx148QcIJjhLI1CBAgsJOAgmMnSLchQIDACAEFxwhla0wSUHBMgrfsEwUUHB4QAgQILCSg4FgoLFslQICAgsMzkFhAwZE43IVHU3AsHJ6tEyBQT0DBUS9zExMgsLCA7+BYODxbvyTgOzguCfn5DAHfwTFD3ZoECBC4UkDBcSWcjxEgQGCGgIJjhro1BwkoOAZBW2aTgIJjE5eLCRAgMFdAwTHX3+oECBDYJOAVlU1cLl5LwCsqa+VVZbdeUamStDkJEEghoOBIEaMhCBCoIqDgqJJ0yTkVHCVjP/zQCo7DR2SDBAgQeCig4PA0ECBAYCEBr6gsFJatbhXwispWMdePEPCKyghlaxAgQGAnAQXHTpBuQ4AAgRECTnCMULbGJAEnOCbBW/aJAk5weEAIECCwkICCY6GwbJUAAQJOcHgGEgs4wZE43IVHc4Jj4fBsnQCBegIKjnqZm5gAgYUFnOBYODxbvyQw4gTHsxFx79JG/JzAIwIKDo8DAQIEFhJQcCwUlq0SIEBAweEZSCwwouB4LiKeSmxotP0FvKKyv6k7EiBA4GYCCo6b0boxAQIE9hfwisr+pu54GAGvqBwmCht5RMAJDo8DAQIEFhJQcCwUlq0SIEDACQ7PQGIBJzgSh7vwaE5wLByerRMgUE9AwVEvcxMTILCwgIJj4fBs/ZKAguOSkJ/PEFBwzFC3JgECBK4UUHBcCedjBAgQmCGg4Jihbs1BAgqOQdCW2SSg4NjE5WICBAjMFVBwzPW3OgECBDYJKDg2cbl4LQEFx1p5VdmtgqNK0uYkQCCFgIIjRYyGIECgioCCo0rSJedUcJSM/fBDKzgOH5ENEiBA4KGAgsPTQIAAgYUE/BaVhcKy1a0CfovKVjHXjxDwW1RGKFuDAAECOwkoOHaCdBsCBAiMEHCCY4SyNSYJOMExCd6yTxRwgsMDQoAAgYUEFBwLhWWrBAgQUHB4BhILKDgSh7vwaAqOhcOzdQIE6gkoOOplbmICBBYW8IrKwuHZ+iUBr6hcEvLzGQJeUZmhbk0CBAhcKaDguBLOxwgQIDBDQMExQ92agwQUHIOgLbNJQMGxicvFBAgQmCug4Jjrb3UCBAhsEvCKyiYuF68lMOIVlWcj4t5aLHY7WUDBMTkAyxMgQGCLgIJji5ZrCRAgMFlAwTE5AMvfUmBEwfFcRDx1yyHcO52A7+BIF6mBCBDILKDgyJyu2QgQSCeg4EgXqYEeCig4PA1HFFBwHDEVeyJAgMBjBBQcHg0CBAgsJKDgWCgsW90qoODYKub6EQIKjhHK1iBAgMBOAgqOnSDdhgABAiMEfMnoCGVrTBLwJaOT4C37RAHfweEBIUCAwEICCo6FwrJVAgQIOMHhGUgsMOIEhy8ZTfwA3Wg0BceNYN2WAAECtxBQcNxC1T0JECBwIwEFx41g3fYIAiMKDl8yeoSk19qDV1TWystuCRAoLqDgKP4AGJ8AgbUEFBxr5WW3mwQUHJu4XDxIQMExCNoyBAgQ2ENAwbGHonsQIEBgkICCYxC0ZWYIKDhmqFvzkoCC45KQnxMgQOBAAgqOA4VhKwQIELgk4EtGLwn5+cICvmR04fASb913cCQO12gECOQTUHDky9REBAgkFnCCI3G4RnOCwzNwRAEnOI6Yij0RIEDgMQIKDo8GAQIEFhJwgmOhsGx1q4ATHFvFXD9CwAmOEcrWIECAwE4CCo6dIN2GAAECIwSc4BihbI1JAk5wTIK37BMFnODwgBAgQGAhAQXHQmHZKgECBBQcnoHEAgqOxOEuPJqCY+HwbJ0AgXoCCo56mZuYAIGFBRQcC4dn65cEFByXhPx8hoCCY4a6NQkQIHClgILjSjgfI0CAwAwBBccMdWsOElBwDIK2zCYBBccmLhcTIEBgroCCY66/1QkQILBJQMGxicvFawmMKDiejYh7a7HY7WQBXzI6OQDLEyBAYIuAgmOLlmsJECAwWUDBMTkAy99SQMFxS133vlZAwXGtnM8RIEBggoCCYwK6JQkQIHCtgILjWjmfW0BgRMHxXEQ8tYCFLR5HwCsqx8nCTggQIHBRQMFxkcgFBAgQOI6AguM4WdjJ7gIKjt1J3XAHAQXHDohuQYAAgVECCo5R0tYhQIDADgK992ci4m073MotCBxN4OnW2jtvuaneu+/guCVwznt7RSVnrqYiQCCpgIIjabDGIkAgp4ATHDlzNdXHBEac4FBweNi2Cig4toq5ngABAhMFFBwT8S1NgACBrQIKjq1irl9IYETB4Ts4FnogDrJVr6gcJAjbIECAwF0EFBx3UXINAQIEDiKg4DhIELZxC4ERBYcTHLdILvc9neDIna/pCBBIJqDgSBaocQgQyC2g4Midb/HpRhQcTnAUf8iuGN8JjivQfIQAAQKzBBQcs+StS4AAgSsEfMnoFWg+soqALxldJala+3SCo1bepiVAYHEBBcfiAdo+AQK1BBQctfIuNq2Co1jgi4yr4FgkKNskQIDASUDB4TkgQIDAQgJeUVkoLFvdKuAVla1irh8h4BWVEcrWIECAwE4CCo6dIN2GAAECIwQUHCOUrTFJQMExCd6yTxRQcHhACBAgsJCAgmOhsGyVAAECXlHxDCQW8IpK4nAXHs0rKguHZ+sECNQTUHDUy9zEBAgsLKDgWDg8W78koOC4JOTnMwQUHDPUrUmAAIErBRQcV8L5GAECBGYIeEVlhro1Bwl4RWUQtGU2CXhFZROXiwkQIDBXQMEx19/qBAgQ2CSg4NjE5eK1BBQca+VVZbcKjipJm5MAgRQCCo4UMRqCAIEqAgqOKkmXnFPBUTL2ww+t4Dh8RDZIgACBhwIKDk8DAQIEFhLwHRwLhWWrWwV8B8dWMdePEPAdHCOUrUGAAIGdBBQcO0G6DQECBEYIOMExQtkakwSc4JgEb9knCjjB4QEhQIDAQgIKjoXCslUCBAgoODwDiQUUHInDXXg0BcfC4dk6AQL1BBQc9TI3MQECCwsoOBYOz9YvCSg4Lgn5+QwBBccMdWsSIEDgSgEFx5VwPkaAAIEZAr6DY4a6NQcJ+A6OQdCW2STgOzg2cbmYAAECcwUUHHP9rU6AAIFNAk5wbOJy8VoCTnCslVeV3TrBUSVpcxIgkEJAwZEiRkMQIFBFQMFRJemScyo4SsZ++KEVHIePyAYJECDwUEDB4WkgQIDAQgIKjoXCstWtAgqOrWKuHyGg4BihbA0CBAjsJKDg2AnSbQgQIDBCwHdwjFC2xiQB38ExCd6yTxTwHRweEAIECCwkoOBYKCxbJUCAgBMcnoHEAk5wJA534dGc4Fg4PFsnQKCegIKjXuYmJkBgYQEnOBYOz9YvCTjBcUnIz2cIOMExQ92aBAgQuFJAwXElnI8RIEBghoCCY4a6NQcJKDgGQVtmk4CCYxOXiwkQIDBXQMEx19/qBAgQ2CTgFZVNXC5eS8ArKmvlVWW3XlGpkrQ5CRBIIaDgSBGjIQgQqCLgBEeVpEvO6QRHydgPP7QTHIePyAYJECDwUEDB4WkgQIDAQgJOcCwUlq1uFXCCY6uY60cIOMExQtkaBAgQ2ElAwbETpNsQIEBghIATHCOUrTFJwAmOSfCWfaKAExweEAIECCwkoOBYKCxbJUCAgILDM5BYQMGRONyFR1NwLByerRMgUE9AwVEvcxMTILCwgIJj4fBs/ZKAguOSkJ/PEFBwzFC3JgECBK4UUHBcCedjBAgQmCGg4Jihbs1BAgqOQdCW2SSg4NjE5WICBAjMFVBwzPW3OgECBDYJ9N6/OiL++qYPuZjAGgIKjjVyqrbLv9Fa+6pqQ5uXAAECqwooOFZNzr4JECgp0Hv/qxHxt0oOb+jsAn6LSvaE15zvr7TWvmbNrds1AQIE6gkoOOplbmICBBYW6L0/HRHftPAItk7gcQIjCo5nI+KeCAhsEHhLa+3dG653KQECBAhMFFBwTMS3NAECBLYK9N4/MSI+vPVzriewgIBXVBYIqdgWfyEiXtVa+0ixuY1LgACBZQUUHMtGZ+MECFQV6L3/44h4a9X5zZ1WQMGRNtplB3t7a+1PL7t7GydAgEBBAQVHwdCNTIDA2gK99y+IiO9eewq7J/BrBEa8ovJcRDzFnsAdBV7XWvuhO17rMgIECBA4gICC4wAh2AIBAgS2CvTevzUi3rT1c64ncGABJzgOHE7BrX1ja+2PFZzbyAQIEFhaQMGxdHw2T4BAVYHe+2+JiO+NiN9Y1cDc6QSc4EgX6bIDnU76vKG19v5lJ7BxAgQIFBVQcBQN3tgECKwv0Hv/3Ij4lxFx+uJRfwisLuAEx+oJ5tj/ByPiC1trP5ZjHFMQIECgloCCo1bepiVAIJlA7/1zIuJdEfGaZKMZp56AgqNe5keb+MfL4w1MAAATzElEQVQj4staa+872sbshwABAgTuJqDguJuTqwgQIHBYgd776TWVvxkRX37YTdoYgcsCCo7LRq64ncAzEfFVrbX/dbsl3JkAAQIEbi2g4Li1sPsTIEBgkEDv/Ysi4q9FxJsj4uWDlrUMgb0ERnwHx7MRcW+vDbvP8gIfiohvuv9/L7+6tfbe5acxAAECBAiEgsNDQIAAgWQCvfdPOL1Dfn5t5dOUHckCzjvON7TW/v0tx+u9nwrAV9xyDfc+vMBHIuKnIuK/tNZO32HkDwECBAgkElBwJArTKAQIECBAgAABAgQIECBAoKqAgqNq8uYmQIAAAQIECBAgQIAAAQKJBBQcicI0CgECBAgQIECAAAECBAgQqCqg4KiavLkJECBAgAABAgQIECBAgEAiAQVHojCNQoAAAQIECBAgQIAAAQIEqgooOKomb24CBAgQIECAAAECBAgQIJBIQMGRKEyjECBAgAABAgQIECBAgACBqgIKjqrJm5sAAQIECBAgQIAAAQIECCQSUHAkCtMoBAgQIECAAAECBAgQIECgqoCCo2ry5iZAgAABAgQIECBAgAABAokEFByJwjQKAQIECBAgQIAAAQIECBCoKqDgqJq8uQkQIECAAAECBAgQIECAQCIBBUeiMI1CgAABAgQIECBAgAABAgSqCig4qiZvbgIECBAgQIAAAQIECBAgkEhAwZEoTKMQIECAAAECBAgQIECAAIGqAgqOqsmbmwABAgQIECBAgAABAgQIJBJQcCQK0ygECBAgQIAAAQIECBAgQKCqgIKjavLmJkCAAAECBAgQIECAAAECiQQUHInCNAoBAgQIECBAgAABAgQIEKgqoOComry5CRAgQIAAAQIECBAgQIBAIgEFR6IwjUKAAAECBAgQIECAAAECBKoKKDiqJm9uAgQIECBAgAABAgQIECCQSEDBkShMoxAgQIAAAQIECBAgQIAAgaoCCo6qyZubAAECBAgQIECAAAECBAgkElBwJArTKAQIECBAgAABAgQIECBAoKqAgqNq8uYmQIAAAQIECBAgQIAAAQKJBBQcicI0CgECBAgQIECAAAECBAgQqCqg4KiavLkJECBAgAABAgQIECBAgEAiAQVHojCNQoAAAQIECBAgQIAAAQIEqgooOKomb24CBAgQIECAAAECBAgQIJBIQMGRKEyjECBAgAABAgQIECBAgACBqgIKjqrJm5sAAQIECBAgQIAAAQIECCQSUHAkCtMoBAgQIECAAAECBAgQIECgqoCCo2ry5iZAgAABAgQIECBAgAABAokEFByJwjQKAQIECBAgQIAAAQIECBCoKqDgqJq8uQkQIECAAAECBAgQIECAQCIBBUeiMI1CgAABAgQIECBAgAABAgSqCig4qiZvbgIECBAgQIAAAQIECBAgkEhAwZEoTKMQIECAAAECBAgQIECAAIGqAgqOqsmbmwABAgQIECBAgAABAgQIJBJQcCQK0ygECBAgQIAAAQIECBAgQKCqgIKjavLmJkCAAAECBAgQIECAAAECiQQUHInCNAoBAgQIECBAgAABAgQIEKgqoOComry5CRAgQIAAAQIECBAgQIBAIgEFR6IwjUKAAAECBAgQIECAAAECBKoKKDiqJm9uAgQIECBAgAABAgQIECCQSEDBkShMoxAgQIAAAQIECBAgQIAAgaoCCo6qyZubAAECBAgQIECAAAECBAgkElBwJArTKAQIECBAgAABAgQIECBAoKqAgqNq8uYmQIAAAQIECBAgQIAAAQKJBBQcicI0CgECBAgQIECAAAECBAgQqCqg4KiavLkJECBAgAABAgQIECBAgEAiAQVHojCNQoAAAQIECBAgQIAAAQIEqgooOKomb24CBAgQIECAAAECBAgQIJBIQMGRKEyjECBAgAABAgQIECBAgACBqgIKjqrJm5sAAQIECBAgQIAAAQIECCQSUHAkCtMoBAgQIECAAAECBAgQIECgqoCCo2ry5iZAgAABAgQIECBAgAABAokEFByJwjQKAQIECBAgQIAAAQIECBCoKqDgqJq8uQkQIECAAAECBAgQIECAQCIBBUeiMI1CgAABAgQIECBAgAABAgSqCig4qiZvbgIECBAgQIAAAQIECBAgkEhAwZEoTKMQIECAAAECBAgQIECAAIGqAgqOqsmbmwABAgQIECBAgAABAgQIJBJQcCQK0ygECBAgQIAAAQIECBAgQKCqgIKjavLmJkCAAAECBAgQIECAAAECiQQUHInCNAoBAgQIECBAgAABAgQIEKgqoOComry5CRAgQIAAAQIECBAgQIBAIgEFR6IwjUKAAAECBAgQIECAAAECBKoKKDiqJm9uAgQIECBAgAABAgQIECCQSEDBkShMoxAgQIAAAQIECBAgQIAAgaoCCo6qyZubAAECBAgQIECAAAECBAgkElBwJArTKAQIECBAgAABAgQIECBAoKqAgqNq8uYmQIAAAQIECBAgQIAAAQKJBBQcicI0CgECBAgQIECAAAECBAgQqCqg4KiavLkJECBAgAABAgQIECBAgEAiAQVHojCNQoAAAQIECBAgQIAAAQIEqgooOKomb24CBAgQIECAAAECBAgQIJBIQMGRKEyjECBAgAABAgQIECBAgACBqgIKjqrJm5sAAQIECBAgQIAAAQIECCQSUHAkCtMoBAgQIECAAAECBAgQIECgqoCCo2ry5iZAgAABAgQIECBAgAABAokEFByJwjQKAQIECBAgQIAAAQIECBCoKqDgqJq8uQkQIECAAAECBAgQIECAQCIBBUeiMI1CgAABAgQIECBAgAABAgSqCig4qiZvbgIECBAgQIAAAQIECBAgkEhAwZEoTKMQIECAAAECBAgQIECAAIGqAgqOqsmbmwABAgQIECBAgAABAgQIJBJQcCQK0ygECBAgQIAAAQIECBAgQKCqgIKjavLmJkCAAAECBAgQIECAAAECiQQUHInCNAoBAgQIECBAgAABAgQIEKgqoOComry5CRAgQIAAAQIECBAgQIBAIgEFR6IwjUKAAAECBAgQIECAAAECBKoKKDiqJm9uAgQIECBAgAABAgQIECCQSEDBkShMoxAgQIAAAQIECBAgQIAAgaoCCo6qyZubAAECBAgQIECAAAECBAgkElBwJArTKAQIECBAgAABAgQIECBAoKqAgqNq8uYmQIAAAQIECBAgQIAAAQKJBBQcicI0CgECBAgQIECAAAECBAgQqCqg4KiavLkJECBAgAABAgQIECBAgEAiAQVHojCNQoAAAQIECBAgQIAAAQIEqgooOKomb24CBAgQIECAAAECBAgQIJBIQMGRKEyjECBAgAABAgQIECBAgACBqgIKjqrJm5sAAQIECBAgQIAAAQIECCQSUHAkCtMoBAgQIECAAAECBAgQIECgqoCCo2ry5iZAgAABAgQIECBAgAABAokEFByJwjQKAQIECBAgQIAAAQIECBCoKqDgqJq8uQkQIECAAAECBAgQIECAQCIBBUeiMI1CgAABAgQIECBAgAABAgSqCig4qiZvbgIECBAgQIAAAQIECBAgkEhAwZEoTKMQIECAAAECBAgQIECAAIGqAgqOqsmbmwABAgQIECBAgAABAgQIJBJQcCQK0ygECBAgQIAAAQIECBAgQKCqgIKjavLmJkCAAAECBAgQIECAAAECiQQUHInCNAoBAgQIECBAgAABAgQIEKgqoOComry5CRAgQIAAAQIECBAgQIBAIgEFR6IwjUKAAAECBAgQIECAAAECBKoKKDiqJm9uAgQIECBAgAABAgQIECCQSEDBkShMoxAgQIAAAQIECBAgQIAAgaoCCo6qyZubAAECBAgQIECAAAECBAgkElBwJArTKAQIECBAgAABAgQIECBAoKqAgqNq8uYmQIAAAQIECBAgQIAAAQKJBBQcicI0CgECBAgQIECAAAECBAgQqCqg4KiavLkJECBAgAABAgQIECBAgEAiAQVHojCNQoAAAQIECBAgQIAAAQIEqgooOKomb24CBAgQIECAAAECBAgQIJBIQMGRKEyjECBAgAABAgQIECBAgACBqgIKjqrJm5sAAQIECBAgQIAAAQIECCQSUHAkCtMoBAgQIECAAAECBAgQIECgqoCCo2ry5iZAgAABAgQIECBAgAABAokEFByJwjQKAQIECBAgQIAAAQIECBCoKqDgqJq8uQkQIECAAAECBAgQIECAQCIBBUeiMI1CgAABAgQIECBAgAABAgSqCig4qiZvbgIECBAgQIAAAQIECBAgkEhAwZEoTKMQIECAAAECBAgQIECAAIGqAgqOqsmbmwABAgQIECBAgAABAgQIJBJQcCQK0ygECBAgQIAAAQIECBAgQKCqgIKjavLmJkCAAAECBAgQIECAAAECiQQUHInCNAoBAgQIECBAgAABAgQIEKgqoOComry5CRAgQIAAAQIECBAgQIBAIgEFR6IwjUKAAAECBAgQIECAAAECBKoKKDiqJm9uAgQIECBAgAABAgQIECCQSEDBkShMoxAgQIAAAQIECBAgQIAAgaoCCo6qyZubAAECBAgQIECAAAECBAgkElBwJArTKAQIECBAgAABAgQIECBAoKqAgqNq8uYmQIAAAQIECBAgQIAAAQKJBBQcicI0CgECBAgQIECAAAECBAgQqCqg4KiavLkJECBAgAABAgQIECBAgEAiAQVHojCNQoAAAQIECBAgQIAAAQIEqgooOKomb24CBAgQIECAAAECBAgQIJBIQMGRKEyjECBAgAABAgQIECBAgACBqgIKjqrJm5sAAQIECBAgQIAAAQIECCQSUHAkCtMoBAgQIECAAAECBAgQIECgqoCCo2ry5iZAgAABAgQIECBAgAABAokEFByJwjQKAQIECBAgQIAAAQIECBCoKqDgqJq8uQkQIECAAAECBAgQIECAQCIBBUeiMI1CgAABAgQIECBAgAABAgSqCig4qiZvbgIECBAgQIAAAQIECBAgkEhAwZEoTKMQIECAAAECBAgQIECAAIGqAgqOqsmbmwABAgQIECBAgAABAgQIJBJQcCQK0ygECBAgQIAAAQIECBAgQKCqgIKjavLmJkCAAAECBAgQIECAAAECiQQUHInCNAoBAgQIECBAgAABAgQIEKgqoOComry5CRAgQIAAAQIECBAgQIBAIgEFR6IwjUKAAAECBAgQIECAAAECBKoKKDiqJm9uAgQIECBAgAABAgQIECCQSEDBkShMoxAgQIAAAQIECBAgQIAAgaoCCo6qyZubAAECBAgQIECAAAECBAgkElBwJArTKAQIECBAgAABAgQIECBAoKqAgqNq8uYmQIAAAQIECBAgQIAAAQKJBBQcicI0CgECBAgQIECAAAECBAgQqCqg4KiavLkJECBAgAABAgQIECBAgEAiAQVHojCNQoAAAQIECBAgQIAAAQIEqgooOKomb24CBAgQIECAAAECBAgQIJBIQMGRKEyjECBAgAABAgQIECBAgACBqgIKjqrJm5sAAQIECBAgQIAAAQIECCQSUHAkCtMoBAgQIECAAAECBAgQIECgqoCCo2ry5iZAgAABAgQIECBAgAABAokEFByJwjQKAQIECBAgQIAAAQIECBCoKqDgqJq8uQkQIECAAAECBAgQIECAQCIBBUeiMI1CgAABAgQIECBAgAABAgSqCig4qiZvbgIECBAgQIAAAQIECBAgkEhAwZEoTKMQIECAAAECBAgQIECAAIGqAgqOqsmbmwABAgQIECBAgAABAgQIJBJQcCQK0ygECBAgQIAAAQIECBAgQKCqgIKjavLmJkCAAAECBAgQIECAAAECiQQUHInCNAoBAgQIECBAgAABAgQIEKgqoOComry5CRAgQIAAAQIECBAgQIBAIgEFR6IwjUKAAAECBAgQIECAAAECBKoKKDiqJm9uAgQIECBAgAABAgQIECCQSEDBkShMoxAgQIAAAQIECBAgQIAAgaoCCo6qyZubAAECBAgQIECAAAECBAgkElBwJArTKAQIECBAgAABAgQIECBAoKqAgqNq8uYmQIAAAQIECBAgQIAAAQKJBBQcicI0CgECBAgQIECAAAECBAgQqCqg4KiavLkJECBAgAABAgQIECBAgEAiAQVHojCNQoAAAQIECBAgQIAAAQIEqgooOKomb24CBAgQIECAAAECBAgQIJBIQMGRKEyjECBAgAABAgQIECBAgACBqgIKjqrJm5sAAQIECBAgQIAAAQIECCQSUHAkCtMoBAgQIECAAAECBAgQIECgqoCCo2ry5iZAgAABAgQIECBAgAABAokEFByJwjQKAQIECBAgQIAAAQIECBCoKqDgqJq8uQkQIECAAAECBAgQIECAQCIBBUeiMI1CgAABAgQIECBAgAABAgSqCig4qiZvbgIECBAgQIAAAQIECBAgkEhAwZEoTKMQIECAAAECBAgQIECAAIGqAgqOqsmbmwABAgQIECBAgAABAgQIJBJQcCQK0ygECBAgQIAAAQIECBAgQKCqgIKjavLmJkCAAAECBAgQIECAAAECiQQUHInCNAoBAgQIECBAgAABAgQIEKgqoOComry5CRAgQIAAAQIECBAgQIBAIgEFR6IwjUKAAAECBAgQIECAAAECBKoKKDiqJm9uAgQIECBAgAABAgQIECCQSEDBkShMoxAgQIAAAQIECBAgQIAAgaoCCo6qyZubAAECBAgQIECAAAECBAgkElBwJArTKAQIECBAgAABAgQIECBAoKrA/wVoHUehrJP0ZwAAAABJRU5ErkJggg==;" vertex="1" parent="1">
          <mxGeometry x="862" y="187.5" width="150" height="150" as="geometry" />
        </mxCell>
      </root>
    </mxGraphModel>
  </diagram>
</mxfile>
